<svg width="103" height="85" viewBox="0 0 103 85" fill="none" xmlns="http://www.w3.org/2000/svg">
<g clip-path="url(#clip0_98_1868)">
<path d="M7.94372 69.9946C7.94372 69.9946 6.80483 71.4035 6.73321 71.4857C6.96921 72.5213 7.94372 71.899 7.94372 71.899L9.21058 70.2447L9.23876 36.6088L6.87528 33.0806H5.19043L8.0306 37.2886L7.94372 69.9946Z" fill="#6A6A6B"/>
<path d="M9.0293 35.4053C9.16432 47.2192 9.30052 59.0319 9.43554 70.8458C23.5871 74.4644 37.7375 78.083 51.889 81.7016C53.8275 80.7318 55.7659 79.7632 57.7044 78.7934C63.5843 80.2469 69.4642 81.7016 75.3454 83.1552C75.4463 71.0078 75.5473 58.8605 75.6495 46.7131L9.0293 35.4053Z" fill="#D8D8D6"/>
<path d="M103 3.58936V38.7105L75.6494 46.7132L75.9054 46.3105L103 3.58936Z" fill="#D8D8D6"/>
<path d="M103 38.3828V71.1745C93.7823 75.1677 84.5644 79.1608 75.3464 83.1552C75.2842 70.9456 75.2232 58.736 75.1621 46.5276L75.9053 46.3104L103 38.3828Z" fill="#D8D8D6"/>
<path d="M90.25 53.1989L98.0015 51.1924V69.1645L90.25 71.0149V53.1989Z" fill="#68A1B5"/>
<path d="M96.6407 68.4165C94.5108 69.0059 92.3798 69.5953 90.25 70.1847C90.2523 70.5827 90.2535 70.9819 90.2559 71.38C92.8377 70.6414 95.4196 69.9029 98.0015 69.1644C97.5483 68.9155 97.0939 68.6654 96.6407 68.4165Z" fill="#292C3A"/>
<path d="M98.0014 69.1645C97.5482 68.9156 97.0938 68.6667 96.6406 68.4166C96.6582 62.7879 96.6758 57.1592 96.6923 51.5305C97.1279 51.4178 97.5646 51.3051 98.0002 51.1924C98.0014 57.1827 98.0014 63.1742 98.0014 69.1645Z" fill="#565D75"/>
<path d="M56.9229 43.5349C63.1656 44.594 69.4072 45.6542 75.6499 46.7132C75.549 58.8606 75.448 71.0079 75.3458 83.1553C69.4659 81.7017 63.5859 80.247 57.7048 78.7935C57.4442 67.0406 57.1835 55.2878 56.9229 43.5349Z" fill="#C1C1C1"/>
<path d="M67.7224 60.4984C65.9073 60.0816 64.0933 59.6636 62.2781 59.2468C62.0092 59.3995 61.7415 59.5521 61.4727 59.7047C63.5555 60.1826 65.6396 60.6605 67.7224 61.1383C67.7224 60.9258 67.7224 60.7121 67.7224 60.4984Z" fill="#292C3A"/>
<path d="M62.3965 47.4341C62.1159 47.346 61.8353 47.2568 61.5547 47.1687C61.5664 51.3474 61.5782 55.526 61.5899 59.7058C61.8611 59.5532 62.1323 59.4006 62.4036 59.2479C62.4012 55.31 62.3989 51.372 62.3965 47.4341Z" fill="#565D75"/>
<path d="M61.2514 59.4629C63.5961 60.0359 65.9408 60.6088 68.2855 61.1818C67.5658 61.7066 66.8449 62.2315 66.1251 62.7563C63.7065 62.1281 61.2878 61.5 58.8691 60.8718C59.664 60.4022 60.4577 59.9325 61.2514 59.4629Z" fill="#442C16"/>
<path d="M68.2854 61.1816C68.2748 61.5022 68.2642 61.8227 68.2537 62.1444C67.5609 62.6528 66.867 63.1624 66.1743 63.6707C66.1579 63.3655 66.1414 63.0614 66.125 62.7561C66.8459 62.2313 67.5656 61.7065 68.2854 61.1816Z" fill="#0F0903"/>
<path d="M66.1744 63.6709C66.158 63.3656 66.1416 63.0615 66.1251 62.7563C63.7065 62.1281 61.2878 61.5 58.8691 60.8718C58.875 61.1583 58.8821 61.4448 58.8879 61.7325C61.3172 62.3782 63.7452 63.0251 66.1744 63.6709Z" fill="#30200F"/>
<path d="M62.9295 47.5503C62.926 51.3063 62.9225 55.0634 62.9189 58.8194C64.5204 59.1775 66.1219 59.5344 67.7234 59.8925C67.7234 56.1847 67.7234 52.4769 67.7234 48.7678C66.1243 48.3616 64.5275 47.9554 62.9295 47.5503Z" fill="#68A1B5"/>
<path d="M62.2715 47.4341C62.2738 51.372 62.2762 55.3088 62.2785 59.2468C64.0937 59.6636 65.9077 60.0816 67.7229 60.4984C67.7229 60.2965 67.7229 60.0933 67.7229 59.8914C66.1214 59.5333 64.5199 59.1764 62.9184 58.8183C62.9219 55.0623 62.9255 51.3051 62.929 47.5491C62.7106 47.5116 62.491 47.4728 62.2715 47.4341Z" fill="#D8D8D6"/>
<path d="M64.9294 48.0576C64.9071 51.7889 64.8848 55.5214 64.8613 59.2527C65.0738 59.2997 65.2864 59.3478 65.4977 59.3948C65.5388 55.6741 65.5799 51.9545 65.6221 48.2337C65.3908 48.175 65.1607 48.1163 64.9294 48.0576Z" fill="#D8D8D6"/>
<path d="M62.926 50.4668C63.587 50.6077 64.2492 50.7486 64.9102 50.8895C64.909 51.1008 64.9067 51.3122 64.9055 51.5224C64.2457 51.3721 63.5847 51.2229 62.9248 51.0727C62.926 50.8707 62.926 50.6687 62.926 50.4668Z" fill="#D8D8D6"/>
<path d="M65.3215 50.9939C66.0835 51.1348 66.8455 51.2757 67.6075 51.4166C67.6051 51.6279 67.6039 51.8393 67.6016 52.0494C66.8408 51.8991 66.0811 51.75 65.3203 51.5997C65.3215 51.399 65.3215 51.197 65.3215 50.9939Z" fill="#D8D8D6"/>
<path d="M65.3215 55.27C66.0835 55.4109 66.8455 55.5518 67.6075 55.6927C67.6051 55.9041 67.6039 56.1154 67.6016 56.3256C66.8408 56.1753 66.0811 56.0262 65.3203 55.8759C65.3215 55.6739 65.3215 55.472 65.3215 55.27Z" fill="#D8D8D6"/>
<path d="M62.926 54.7417C63.587 54.8826 64.2492 55.0235 64.9102 55.1644C64.909 55.3757 64.9067 55.587 64.9055 55.7972C64.2457 55.6469 63.5847 55.4978 62.9248 55.3475C62.926 55.1456 62.926 54.9436 62.926 54.7417Z" fill="#D8D8D6"/>
<path d="M62.9301 47.5503C62.9289 48.5225 62.9277 49.4946 62.9277 50.4668C63.5888 50.6077 64.251 50.7486 64.912 50.8895" stroke="#9D9DA0" stroke-miterlimit="10"/>
<path d="M65.6221 48.2336C65.6221 49.1471 65.6221 50.0606 65.6221 50.974C66.2831 51.1149 66.9453 51.2558 67.6063 51.3967" stroke="#9D9DA0" stroke-miterlimit="10"/>
<path d="M62.9268 51.0725C62.9268 52.2959 62.9268 53.5182 62.9279 54.7416C63.589 54.8825 64.2512 55.0234 64.9122 55.1643" stroke="#9D9DA0" stroke-miterlimit="10"/>
<path d="M65.6221 51.675C65.6221 52.8985 65.6221 54.1207 65.6232 55.3441C66.2843 55.485 66.9465 55.6259 67.6075 55.7668" stroke="#9D9DA0" stroke-miterlimit="10"/>
<path d="M62.926 55.3486C62.9236 56.5051 62.9213 57.6628 62.9189 58.8193C63.5671 58.9637 64.214 59.1081 64.8621 59.2525" stroke="#9D9DA0" stroke-miterlimit="10"/>
<path d="M65.5246 55.8936C65.5223 57.0501 65.5199 58.2077 65.5176 59.3642C66.1657 59.5086 66.8126 59.6531 67.4607 59.7975" stroke="#9D9DA0" stroke-miterlimit="10"/>
<path d="M47.4739 69.4674C45.1034 68.9226 42.7341 68.3778 40.3635 67.833C40.0125 68.0326 39.6626 68.2322 39.3115 68.4318C42.0319 69.0564 44.7535 69.6799 47.4739 70.3045C47.4739 70.0262 47.4739 69.7468 47.4739 69.4674Z" fill="#292C3A"/>
<path d="M40.5171 52.4052C40.1508 52.2901 39.7845 52.1739 39.417 52.0588C39.4323 57.5161 39.4487 62.9745 39.464 68.4318C39.8174 68.2322 40.1719 68.0326 40.5265 67.833C40.523 62.6904 40.5207 57.5478 40.5171 52.4052Z" fill="#565D75"/>
<path d="M41.2133 52.5566C41.2086 57.4621 41.2039 62.3687 41.1992 67.2741C43.2903 67.7414 45.3826 68.2087 47.4737 68.6749C47.4737 63.8316 47.4737 58.9896 47.4737 54.1464C45.3861 53.6169 43.2997 53.0862 41.2133 52.5566Z" fill="#68A1B5"/>
<path d="M40.3545 52.4053C40.358 57.5479 40.3604 62.6905 40.3639 67.8331C42.7344 68.3779 45.1038 68.9227 47.4743 69.4674C47.4743 69.2033 47.4743 68.9391 47.4743 68.6749C45.3832 68.2076 43.2909 67.7403 41.1999 67.2742C41.2045 62.3688 41.2092 57.4622 41.2139 52.5567C40.9275 52.5062 40.641 52.4558 40.3545 52.4053Z" fill="#D8D8D6"/>
<path d="M43.8244 53.2202C43.795 58.0939 43.7657 62.9677 43.7363 67.8414C44.0134 67.9036 44.2905 67.9647 44.5676 68.0269C44.6216 63.1684 44.6756 58.3088 44.7296 53.4503C44.4279 53.3728 44.1261 53.2965 43.8244 53.2202Z" fill="#D8D8D6"/>
<path d="M41.2099 56.3655C42.074 56.5498 42.9382 56.7341 43.8023 56.9173C43.7999 57.1932 43.7976 57.4691 43.7964 57.7438C42.9346 57.5478 42.0717 57.3529 41.2099 57.1568C41.2087 56.8938 41.2087 56.6296 41.2099 56.3655Z" fill="#D8D8D6"/>
<path d="M44.3378 57.0547C45.3334 57.239 46.3279 57.4234 47.3235 57.6065C47.3212 57.8824 47.3189 58.1584 47.3165 58.4331C46.3232 58.237 45.3299 58.0421 44.3378 57.846C44.3366 57.583 44.3366 57.3189 44.3378 57.0547Z" fill="#D8D8D6"/>
<path d="M44.3378 62.6387C45.3334 62.823 46.3279 63.0073 47.3235 63.1905C47.3212 63.4664 47.3189 63.7423 47.3165 64.0171C46.3232 63.821 45.3299 63.6261 44.3378 63.43C44.3366 63.167 44.3366 62.9028 44.3378 62.6387Z" fill="#D8D8D6"/>
<path d="M41.2099 61.9485C42.074 62.1328 42.9382 62.3172 43.8023 62.5003C43.7999 62.7762 43.7976 63.0522 43.7964 63.3269C42.9346 63.1308 42.0717 62.9359 41.2099 62.7398C41.2087 62.4768 41.2087 62.2127 41.2099 61.9485Z" fill="#D8D8D6"/>
<path d="M44.7305 53.449C44.7305 54.6419 44.7305 55.8348 44.7305 57.0277C45.5946 57.212 46.4588 57.3964 47.3229 57.5795" stroke="#9D9DA0" stroke-miterlimit="10"/>
<path d="M42.1328 60.2671C42.1328 61.8639 42.134 63.4618 42.134 65.0586C42.9981 65.243 43.8623 65.4273 44.7264 65.6105" stroke="#9D9DA0" stroke-miterlimit="10"/>
<path d="M44.7305 57.9436C44.7305 59.5404 44.7316 61.1384 44.7316 62.7351C45.5958 62.9195 46.4599 63.1038 47.3241 63.287" stroke="#9D9DA0" stroke-miterlimit="10"/>
<path d="M41.2086 62.741C41.2051 64.252 41.2027 65.7631 41.1992 67.2742C42.0446 67.4632 42.8911 67.6523 43.7365 67.8413" stroke="#9D9DA0" stroke-miterlimit="10"/>
<path d="M44.6022 63.4524C44.5986 64.9635 44.5963 66.4746 44.5928 67.9856C45.4381 68.1747 46.2847 68.3637 47.13 68.5527" stroke="#9D9DA0" stroke-miterlimit="10"/>
<path d="M20.2347 63.0321C17.8642 62.4873 15.4948 61.9425 13.1243 61.3977C12.7732 61.5973 12.4233 61.7969 12.0723 61.9965C14.7927 62.6211 17.5143 63.2446 20.2347 63.8692C20.2347 63.5909 20.2347 63.3115 20.2347 63.0321Z" fill="#292C3A"/>
<path d="M13.2789 45.9699C12.9125 45.8548 12.5462 45.7386 12.1787 45.6235C12.194 51.0808 12.2104 56.5392 12.2257 61.9965C12.5803 61.7969 12.9337 61.5973 13.2882 61.3977C13.2847 56.2551 13.2812 51.1125 13.2789 45.9699Z" fill="#565D75"/>
<path d="M13.974 46.1213C13.9694 51.0268 13.9647 55.9334 13.96 60.8388C16.0511 61.3061 18.1433 61.7734 20.2344 62.2395C20.2344 57.3963 20.2344 52.5543 20.2344 47.7111C18.148 47.1804 16.0604 46.6509 13.974 46.1213Z" fill="#68A1B5"/>
<path d="M13.1152 45.97C13.1188 51.1126 13.1211 56.2552 13.1246 61.3978C15.4952 61.9425 17.8645 62.4873 20.235 63.0321C20.235 62.7679 20.235 62.5038 20.235 62.2396C18.1439 61.7723 16.0517 61.305 13.9606 60.8389C13.9653 55.9335 13.97 51.0269 13.9747 46.1214C13.6882 46.0709 13.4017 46.0205 13.1152 45.97Z" fill="#D8D8D6"/>
<path d="M16.5851 46.7847C16.5558 51.6584 16.5264 56.5321 16.4971 61.4059C16.7742 61.4681 17.0512 61.5291 17.3283 61.5914C17.3823 56.7329 17.4364 51.8733 17.4904 47.0148C17.1886 46.9373 16.8869 46.861 16.5851 46.7847Z" fill="#D8D8D6"/>
<path d="M13.9712 49.9302C14.8354 50.1145 15.6995 50.2988 16.5637 50.482C16.5613 50.7579 16.559 51.0338 16.5578 51.3086C15.696 51.1125 14.833 50.9176 13.9712 50.7215C13.9701 50.4573 13.9712 50.1944 13.9712 49.9302Z" fill="#D8D8D6"/>
<path d="M17.0985 50.6194C18.0942 50.8037 19.0886 50.9881 20.0843 51.1712C20.0819 51.4471 20.0796 51.723 20.0772 51.9978C19.084 51.8017 18.0907 51.6068 17.0985 51.4107C17.0974 51.1477 17.0974 50.8836 17.0985 50.6194Z" fill="#D8D8D6"/>
<path d="M17.0985 56.2036C18.0942 56.3879 19.0886 56.5723 20.0843 56.7554C20.0819 57.0314 20.0796 57.3073 20.0772 57.582C19.084 57.3859 18.0907 57.191 17.0985 56.995C17.0974 56.7308 17.0974 56.4678 17.0985 56.2036Z" fill="#D8D8D6"/>
<path d="M13.9712 55.5132C14.8354 55.6975 15.6995 55.8819 16.5637 56.065C16.5613 56.3409 16.559 56.6168 16.5578 56.8916C15.696 56.6955 14.833 56.5006 13.9712 56.3045C13.9701 56.0415 13.9712 55.7774 13.9712 55.5132Z" fill="#D8D8D6"/>
<path d="M17.4902 47.0137C17.4902 48.2066 17.4902 49.3995 17.4902 50.5924C18.3544 50.7767 19.2185 50.961 20.0827 51.1442" stroke="#9D9DA0" stroke-miterlimit="10"/>
<path d="M14.8936 53.8318C14.8936 55.4286 14.8947 57.0265 14.8947 58.6233C15.7589 58.8077 16.623 58.992 17.4872 59.1752" stroke="#9D9DA0" stroke-miterlimit="10"/>
<path d="M17.4902 51.5083C17.4902 53.1051 17.4914 54.703 17.4914 56.2998C18.3556 56.4842 19.2197 56.6685 20.0838 56.8516" stroke="#9D9DA0" stroke-miterlimit="10"/>
<path d="M13.9694 56.3057C13.9658 57.8167 13.9635 59.3278 13.96 60.8389C14.8053 61.0279 15.6519 61.217 16.4972 61.406" stroke="#9D9DA0" stroke-miterlimit="10"/>
<path d="M17.3629 57.0171C17.3594 58.5282 17.357 60.0392 17.3535 61.5503C18.1989 61.7394 19.0454 61.9284 19.8908 62.1174" stroke="#9D9DA0" stroke-miterlimit="10"/>
<path opacity="0.39" d="M51.8232 42.7927L56.9224 43.5348C57.1831 55.2876 57.4438 67.0405 57.7056 78.7933C55.7671 79.7631 53.8286 80.7318 51.8902 81.7016C51.8679 68.7312 51.8456 55.7619 51.8232 42.7927Z" fill="#6E7374"/>
<path opacity="0.23" d="M9.02852 37.4612L10.5584 38.2725V48.0575L22.9769 50.603V45.6764L31.5761 46.7519L43.0718 49.7659L51.4303 51.5223L57.2974 58.4813L62.2768 59.248L72.0618 61.2275C73.2653 59.2292 74.4605 57.2074 75.6475 55.1609C83.9743 40.8027 91.107 26.5831 97.2288 12.6863C90.0351 24.0282 82.8413 35.3713 75.6475 46.7132C53.4404 42.9443 31.2345 39.1754 9.02734 35.4065V37.4612H9.02852Z" fill="#6E7374"/>
<path d="M96.6935 51.5305C96.4199 51.6186 96.1452 51.7066 95.8716 51.7959C95.8435 57.1733 95.8153 62.5495 95.7871 67.927C93.9414 68.4095 92.0957 68.8921 90.25 69.3747C90.25 69.6447 90.25 69.9147 90.25 70.1848C92.3798 69.5954 94.5108 69.006 96.6407 68.4166" fill="#D8D8D6"/>
<path d="M92.332 68.8298C92.3426 63.4195 92.352 58.0103 92.3626 52.6C92.7218 52.5237 93.0823 52.4474 93.4416 52.3711C93.4369 57.7614 93.4322 63.1518 93.4275 68.5421C93.0623 68.6396 92.6972 68.7347 92.332 68.8298Z" fill="#D8D8D6"/>
<path d="M95.847 56.4863C95.0451 56.6554 94.242 56.8256 93.44 56.9947C93.4389 57.3235 93.4377 57.6522 93.4365 57.981C94.2384 57.8131 95.0392 57.644 95.8411 57.4761C95.8434 57.1474 95.8446 56.8174 95.847 56.4863Z" fill="#D8D8D6"/>
<path d="M95.8216 62.3418C95.0197 62.5109 94.2166 62.6811 93.4147 62.8502C93.4135 63.1789 93.4123 63.5077 93.4111 63.8364C94.2131 63.6685 95.0138 63.4995 95.8157 63.3316C95.8181 63.0028 95.8204 62.6717 95.8216 62.3418Z" fill="#D8D8D6"/>
<path d="M92.4788 63.0896C91.6769 63.2587 90.8738 63.4289 90.0719 63.598C90.0707 63.9267 90.0695 64.2555 90.0684 64.5842C90.8703 64.4163 91.671 64.2473 92.4729 64.0794C92.4753 63.7494 92.4776 63.4195 92.4788 63.0896Z" fill="#D8D8D6"/>
<path d="M92.3323 57.165C91.5304 57.3341 90.7273 57.5044 89.9254 57.6734C89.9242 58.0022 89.923 58.3309 89.9219 58.6597C90.7238 58.4918 91.5245 58.3227 92.3264 58.1548C92.3288 57.8261 92.3311 57.4961 92.3323 57.165Z" fill="#D8D8D6"/>
<path d="M95.7945 51.7759C95.7863 53.3398 95.7781 54.9025 95.7699 56.4665C94.9938 56.6426 94.2165 56.8187 93.4404 56.996" stroke="#9D9DA0" stroke-width="2" stroke-miterlimit="10"/>
<path d="M95.7935 57.5691C95.7853 59.133 95.7771 60.6957 95.7689 62.2596C94.9928 62.4358 94.2155 62.6119 93.4395 62.7892" stroke="#9D9DA0" stroke-width="2" stroke-miterlimit="10"/>
<path d="M95.7369 63.3608C95.7287 64.9248 95.7205 66.4875 95.7122 68.0514C94.9362 68.2275 94.1589 68.4036 93.3828 68.5809" stroke="#9D9DA0" stroke-width="2" stroke-miterlimit="10"/>
<path d="M92.2765 64.0793C92.2683 65.6433 92.2601 67.206 92.2519 68.7699C91.585 68.9719 90.9181 69.1726 90.25 69.3746" stroke="#9D9DA0" stroke-width="2" stroke-miterlimit="10"/>
<path d="M92.2765 58.2476C92.2753 59.8502 92.2742 61.4541 92.2718 63.0567C91.5979 63.1964 90.9239 63.3361 90.25 63.4747" stroke="#9D9DA0" stroke-width="2" stroke-miterlimit="10"/>
<path d="M92.2761 52.6741C92.2679 54.1781 92.2608 55.6821 92.2526 57.1862C91.5916 57.327 90.9306 57.4668 90.2695 57.6077" stroke="#9D9DA0" stroke-width="2" stroke-miterlimit="10"/>
<path d="M89.6533 30.2956L97.4048 28.2891V46.2612L89.6533 48.1116V30.2956Z" fill="#68A1B5"/>
<path d="M96.044 45.5132C93.9142 46.1026 91.7832 46.692 89.6533 47.2814C89.6557 47.6794 89.6568 48.0786 89.6592 48.4766C92.2411 47.7381 94.8229 46.9996 97.4048 46.2611C96.9504 46.0122 96.4972 45.7621 96.044 45.5132Z" fill="#292C3A"/>
<path d="M97.4047 46.2612C96.9515 46.0123 96.4972 45.7633 96.0439 45.5133C96.0616 39.8846 96.0792 34.2559 96.0956 28.6272C96.5312 28.5145 96.968 28.4018 97.4036 28.2891C97.4048 34.2794 97.4047 40.2709 97.4047 46.2612Z" fill="#565D75"/>
<path d="M96.0949 28.6284C95.8213 28.7165 95.5466 28.8045 95.273 28.8938C95.2448 34.2712 95.2166 39.6475 95.1885 45.0249C93.3428 45.5074 91.4971 45.99 89.6514 46.4726C89.6514 46.7426 89.6514 47.0126 89.6514 47.2827C91.7812 46.6933 93.9122 46.1039 96.0421 45.5145" fill="#D8D8D6"/>
<path d="M91.7344 45.9276C91.7449 40.5173 91.7543 35.1082 91.7649 29.6979C92.1242 29.6216 92.4846 29.5453 92.8439 29.469C92.8392 34.8593 92.8345 40.2496 92.8298 45.64C92.4647 45.7362 92.0995 45.8314 91.7344 45.9276Z" fill="#D8D8D6"/>
<path d="M95.2483 33.583C94.4464 33.7521 93.6433 33.9223 92.8414 34.0914C92.8402 34.4201 92.8391 34.7489 92.8379 35.0777C93.6398 34.9098 94.4405 34.7407 95.2425 34.5728C95.2448 34.244 95.2472 33.9141 95.2483 33.583Z" fill="#D8D8D6"/>
<path d="M95.2239 39.4385C94.422 39.6075 93.6189 39.7778 92.817 39.9469C92.8158 40.2756 92.8147 40.6044 92.8135 40.9331C93.6154 40.7652 94.4161 40.5961 95.218 40.4283C95.2204 40.0995 95.2216 39.7684 95.2239 39.4385Z" fill="#D8D8D6"/>
<path d="M91.8811 40.1863C91.0792 40.3554 90.2761 40.5256 89.4742 40.6947C89.473 41.0234 89.4719 41.3522 89.4707 41.6809C90.2726 41.513 91.0734 41.344 91.8753 41.1761C91.8776 40.8461 91.8788 40.5162 91.8811 40.1863Z" fill="#D8D8D6"/>
<path d="M91.7347 34.2617C90.9327 34.4308 90.1297 34.601 89.3277 34.7701C89.3266 35.0989 89.3254 35.4276 89.3242 35.7564C90.1261 35.5885 90.9269 35.4194 91.7288 35.2515C91.7311 34.9227 91.7335 34.5928 91.7347 34.2617Z" fill="#D8D8D6"/>
<path d="M95.1959 28.8726C95.1877 30.4365 95.1795 31.9992 95.1712 33.5631C94.3952 33.7392 93.6179 33.9154 92.8418 34.0927" stroke="#9D9DA0" stroke-width="2" stroke-miterlimit="10"/>
<path d="M95.1959 34.6658C95.1877 36.2297 95.1795 37.7924 95.1712 39.3563C94.3952 39.5325 93.6179 39.7086 92.8418 39.8859" stroke="#9D9DA0" stroke-width="2" stroke-miterlimit="10"/>
<path d="M95.1393 40.4575C95.131 42.0214 95.1228 43.5842 95.1146 45.1481C94.3385 45.3242 93.5612 45.5003 92.7852 45.6776" stroke="#9D9DA0" stroke-width="2" stroke-miterlimit="10"/>
<path d="M91.6779 41.176C91.6697 42.7399 91.6615 44.3027 91.6532 45.8666C90.9863 46.0685 90.3194 46.2693 89.6514 46.4712" stroke="#9D9DA0" stroke-width="2" stroke-miterlimit="10"/>
<path d="M91.6779 35.3442C91.6767 36.9469 91.6755 38.5507 91.6732 40.1534C90.9993 40.2931 90.3253 40.4328 89.6514 40.5714" stroke="#9D9DA0" stroke-width="2" stroke-miterlimit="10"/>
<path d="M91.6784 29.772C91.6702 31.276 91.6632 32.78 91.655 34.2841C90.9939 34.425 90.3329 34.5647 89.6719 34.7056" stroke="#9D9DA0" stroke-width="2" stroke-miterlimit="10"/>
<path d="M37.2107 74.5161C32.3922 72.8113 27.5724 71.1076 22.7539 69.4028C18.8946 70.2094 15.0341 71.0161 11.1748 71.8227C16.4137 73.6848 21.6526 75.547 26.8903 77.4103C30.3304 76.4463 33.7706 75.4812 37.2107 74.5161Z" fill="#6D5745"/>
<path d="M17.8407 55.4475C17.8196 55.5943 17.7985 55.7399 17.7785 55.8866C17.3688 56.0874 16.9578 56.287 16.5469 56.4866C16.5516 56.3457 16.5574 56.206 16.5621 56.0651C16.9883 55.8596 17.4145 55.653 17.8407 55.4475Z" fill="#0F0903"/>
<path d="M34.4294 61.068C34.4153 65.1961 34.4 69.3255 34.3859 73.4537C31.0902 72.3089 27.7933 71.1641 24.4976 70.0194C24.4447 65.7092 24.3907 61.3991 24.3379 57.0901C27.7017 58.4168 31.0655 59.7424 34.4294 61.068Z" fill="#1C120B"/>
<path d="M28.0011 60.8894C27.6794 61.3966 27.3588 61.9038 27.0371 62.4111C27.0453 66.8856 27.0535 71.3589 27.0618 75.8335C27.3893 75.8335 27.7169 75.8335 28.0445 75.8335C28.0304 70.8517 28.0163 65.8712 28.0011 60.8894Z" fill="white"/>
<path d="M28.0457 75.8336C28.3979 75.7608 28.7501 75.6892 29.1024 75.6164C29.0941 70.6534 29.0859 65.6893 29.0789 60.7263C28.7055 60.7451 28.3333 60.7627 27.96 60.7815C27.9881 65.7985 28.0163 70.8154 28.0457 75.8336Z" fill="#A0A0A0"/>
<path d="M36.8364 58.6763L29.6826 47.9766L19.0264 49.4548L25.9947 60.9998L36.8364 58.6763Z" fill="#442C16"/>
<path d="M25.9864 61.9626C25.9888 61.6421 25.9923 61.3204 25.9946 60.9999C23.6711 57.1511 21.3487 53.3036 19.0251 49.4548C17.1313 51.9991 15.2363 54.5434 13.3424 57.0889C13.333 57.3942 13.3248 57.6994 13.3154 58.0047C15.1881 55.5309 17.062 53.057 18.9347 50.5832C21.2853 54.3755 23.6359 58.1691 25.9864 61.9626Z" fill="#0F0903"/>
<path d="M36.7905 59.6272C36.7928 59.9313 36.794 60.2342 36.7964 60.5383C33.2177 61.3414 29.639 62.1433 26.0603 62.9464C26.0356 62.6188 26.011 62.2913 25.9863 61.9637C29.5873 61.1841 33.1895 60.4056 36.7905 59.6272Z" fill="#C1C1C1"/>
<path d="M25.9866 61.9627C26.0113 62.2903 26.0359 62.6179 26.0606 62.9454C23.6619 59.1143 21.2644 55.2844 18.8657 51.4532C16.8474 54.1455 14.8291 56.8377 12.8108 59.5299C12.772 59.2775 12.7321 59.0239 12.6934 58.7715C14.7751 56.0417 16.8556 53.3118 18.9373 50.582C21.2855 54.3756 23.6361 58.1691 25.9866 61.9627Z" fill="white"/>
<path d="M13.1973 58.9791C16.4378 58.628 19.6784 58.2758 22.9177 57.9247C21.5652 55.7749 20.2138 53.6251 18.8612 51.4753C16.9744 53.9762 15.0852 56.477 13.1973 58.9791Z" fill="#C1C1C1"/>
<path d="M16.4297 72.1587C16.7819 72.0859 17.1342 72.0142 17.4864 71.9414C17.4782 66.9785 17.47 62.0143 17.4629 57.0514C17.1248 57.0502 16.7866 57.049 16.4473 57.0479C16.4414 62.0836 16.4356 67.1205 16.4297 72.1587Z" fill="#A0A0A0"/>
<path d="M16.3858 57.2146C16.0641 57.7218 15.7436 58.229 15.4219 58.7362C15.4301 63.2108 15.4383 67.6841 15.4465 72.1587C15.7741 72.1587 16.1017 72.1587 16.4293 72.1587C16.4152 67.1769 16.3999 62.1952 16.3858 57.2146Z" fill="white"/>
<path d="M36.8361 58.6763C36.8208 58.9933 36.8056 59.3103 36.7915 59.6261C33.1905 60.4045 29.5883 61.183 25.9873 61.9614C25.9897 61.6409 25.9932 61.3192 25.9955 60.9986C29.6083 60.2249 33.2222 59.4512 36.8361 58.6763Z" fill="#30200F"/>
<path d="M32.5367 61.4929C32.5343 62.977 32.532 64.4611 32.5284 65.9451C31.3802 65.7256 30.2331 65.5049 29.0848 65.2853C29.0836 64.2803 29.0813 63.274 29.0801 62.269C30.2319 62.0095 31.3849 61.7512 32.5367 61.4929Z" fill="#442C16"/>
<path d="M25.5225 62.0635C25.5272 62.8513 25.5307 63.6403 25.5354 64.4281C26.0379 64.5831 26.5404 64.7381 27.0429 64.8931C27.0418 64.171 27.0406 63.4478 27.0394 62.7257C26.713 62.7985 26.3866 62.8724 26.0602 62.9452C25.8806 62.6517 25.7009 62.357 25.5225 62.0635Z" fill="#442C16"/>
<path d="M25.7633 65.9781C25.6353 65.9417 25.5073 65.9053 25.3794 65.8689L25.3477 68.3733L25.7398 68.5095C25.7468 67.6653 25.7551 66.8211 25.7633 65.9781Z" fill="#B29400"/>
<path d="M39.3148 76.7153C38.5962 76.4864 37.8777 76.2563 37.1591 76.0273C34.3495 76.423 30.9234 76.6555 27.0488 76.3796C20.3083 75.9005 14.8851 74.0783 11.1948 72.4768C9.3961 72.8267 7.59854 73.1766 5.7998 73.5265C12.2398 76.1846 18.681 78.8417 25.121 81.4998C29.8526 79.9054 34.5843 78.311 39.3148 76.7153Z" fill="#6D5745"/>
<path d="M25.1212 81.4998C25.1458 82.0493 25.1705 82.5976 25.194 83.1471C18.7457 80.4419 12.2964 77.7368 5.84814 75.0304C5.8317 74.5044 5.81527 73.9796 5.79883 73.4536C12.2412 76.1365 18.6812 78.8181 25.1212 81.4998Z" fill="#4F4034"/>
<path d="M25.1953 81.4458C25.1965 82.0129 25.1977 82.58 25.1988 83.1483C29.8753 81.555 34.5506 79.9617 39.2271 78.3685C39.2565 77.8178 39.2858 77.2672 39.3152 76.7153C34.6082 78.2922 29.9023 79.869 25.1953 81.4458Z" fill="#4F4034"/>
<path d="M26.8906 77.4115C26.8918 77.9786 26.893 78.5457 26.8941 79.114C30.3155 78.0855 33.7369 77.0569 37.1594 76.0284C37.177 75.5247 37.1934 75.021 37.2111 74.5173C33.7709 75.4813 30.3308 76.4464 26.8906 77.4115Z" fill="#4F4034"/>
<path d="M26.8905 77.4116C26.8916 77.9787 26.8928 78.5458 26.894 79.1141C21.6704 77.2097 16.4468 75.3053 11.2231 73.402C11.2067 72.876 11.1903 72.3512 11.1738 71.8252C16.4139 73.6873 21.6516 75.5495 26.8905 77.4116Z" fill="#4F4034"/>
<path d="M75.871 46.2071C84.914 32.0015 93.957 17.7948 103 3.58926C78.6302 2.39284 54.2603 1.19642 29.8905 0C19.927 11.4358 9.9635 22.8728 0 34.3087C25.2903 38.2748 50.5807 42.241 75.871 46.2071Z" fill="#541515"/>
<path d="M0 34.3086C0.0680984 35.0612 0.136197 35.8138 0.203121 36.5664C25.4207 40.6112 50.6382 44.6572 75.8546 48.702C75.8604 47.8707 75.8651 47.0394 75.871 46.207C50.5807 42.2409 25.2903 38.2747 0 34.3086Z" fill="#DDDDD7"/>
<path d="M73.3724 82.2592C73.3724 82.2592 72.2335 83.6681 72.1619 83.7503C72.3979 84.7859 73.3724 84.1636 73.3724 84.1636L74.6393 82.5093L74.6675 48.8734L72.304 45.3452H70.6191L73.4593 49.5532L73.3724 82.2592Z" fill="#6A6A6B"/>
<path d="M103 3.58936C103 4.50164 103 5.41275 103 6.32503C93.9509 20.4508 84.9032 34.5765 75.8555 48.7022C75.8613 47.8709 75.866 47.0397 75.8719 46.2072C84.9137 32.0017 93.9567 17.7949 103 3.58936Z" fill="#6A6A6B"/>
</g>
<defs>
<clipPath id="clip0_98_1868">
<rect width="103" height="84.3493" fill="white"/>
</clipPath>
</defs>
</svg>
