<svg width="103" height="74" viewBox="0 0 103 74" fill="none" xmlns="http://www.w3.org/2000/svg">
<path d="M7.75977 33.7231C7.87089 43.445 7.98298 53.1659 8.0941 62.8878C19.7407 65.8656 31.3864 68.8434 43.033 71.8212C44.6283 71.0231 46.2236 70.226 47.819 69.428C52.6581 70.6241 57.4973 71.8212 62.3374 73.0174C62.4205 63.0211 62.5036 53.0248 62.5876 43.0286L7.75977 33.7231Z" fill="#D8D8D6"/>
<path d="M62.5879 43.0286L85.1844 7.40308L97.2301 27.3038L97.062 32.9425L62.5879 43.0286Z" fill="#D8D8D6"/>
<path d="M13.7422 37.3291C14.6031 37.5088 15.4651 37.6885 16.326 37.8682C16.3231 39.9571 16.3202 42.0451 16.3173 44.134C15.4593 43.9234 14.6002 43.7137 13.7422 43.5031C13.7422 41.4451 13.7422 39.3871 13.7422 37.3291Z" fill="#68A1B5"/>
<path d="M62.1865 42.8759L96.6606 32.7898C96.5737 41.2807 96.4867 49.7707 96.3988 58.2616C85.0449 63.1805 73.6911 68.0994 62.3373 73.0174C62.288 62.9699 62.2377 52.9234 62.1865 42.8759Z" fill="#D8D8D6"/>
<path d="M16.3144 43.7078C15.6148 43.5436 14.9153 43.3784 14.2157 43.2141C14.0582 43.3107 13.9007 43.4064 13.7422 43.503C14.6002 43.7136 15.4593 43.9233 16.3173 44.1339C16.3164 43.9919 16.3154 43.8499 16.3144 43.7078Z" fill="#292C3A"/>
<path d="M14.2166 37.4402C14.0591 37.4035 13.9007 37.3658 13.7432 37.3291C13.7432 39.3871 13.7432 41.4451 13.7432 43.5041C13.9007 43.4074 14.0582 43.3118 14.2166 43.2152C14.2157 41.2895 14.2157 39.3649 14.2166 37.4402Z" fill="#565D75"/>
<path d="M16.885 60.6289C15.826 60.3854 14.7669 60.1419 13.7079 59.8984C13.5514 59.9873 13.3948 60.0772 13.2383 60.1661C14.4539 60.4453 15.6695 60.7236 16.886 61.0028C16.885 60.8782 16.885 60.7535 16.885 60.6289Z" fill="#292C3A"/>
<path d="M13.776 53.0044C13.6127 52.9532 13.4485 52.9011 13.2852 52.8499C13.2919 55.2885 13.2987 57.7272 13.3064 60.1649C13.4649 60.076 13.6224 59.9862 13.7809 59.8973C13.7789 57.6006 13.778 55.303 13.776 53.0044Z" fill="#565D75"/>
<path d="M13.1131 60.0181C14.4814 60.3524 15.8497 60.6867 17.2179 61.021C16.7976 61.3273 16.3772 61.6335 15.9569 61.9398C14.5452 61.5736 13.1334 61.2065 11.7227 60.8403C12.1865 60.5669 12.6493 60.2925 13.1131 60.0181Z" fill="#442C16"/>
<path d="M17.218 61.021C17.2122 61.2084 17.2055 61.3949 17.1997 61.5824C16.7948 61.879 16.3909 62.1766 15.986 62.4732C15.9764 62.2954 15.9667 62.1176 15.957 61.9398C16.3774 61.6336 16.7977 61.3273 17.218 61.021Z" fill="#0F0903"/>
<path d="M15.9859 62.4742C15.9762 62.2964 15.9666 62.1186 15.9569 61.9408C14.5452 61.5747 13.1334 61.2075 11.7227 60.8413C11.7265 61.0085 11.7304 61.1756 11.7333 61.3428C13.1508 61.7196 14.5684 62.0964 15.9859 62.4742Z" fill="#30200F"/>
<path d="M14.0878 53.0723C14.0859 55.2646 14.084 57.4559 14.0811 59.6482C15.0155 59.8569 15.9498 60.0656 16.8842 60.2743C16.8842 58.111 16.8842 55.9467 16.8842 53.7834C15.9527 53.5457 15.0203 53.309 14.0878 53.0723Z" fill="#68A1B5"/>
<path d="M66.1621 48.0296L72.5415 46.3784V61.168L66.1621 62.6907V48.0296Z" fill="#68A1B5"/>
<path d="M71.4216 60.5525C69.6687 61.0375 67.9149 61.5226 66.1621 62.0076C66.164 62.3351 66.165 62.6636 66.1669 62.9912C68.2918 62.3834 70.4166 61.7757 72.5415 61.168C72.1685 60.9631 71.7946 60.7573 71.4216 60.5525Z" fill="#292C3A"/>
<path d="M72.5418 61.168C72.1688 60.9631 71.7949 60.7583 71.4219 60.5525C71.4364 55.9206 71.4509 51.2886 71.4644 46.6567C71.8229 46.5639 72.1823 46.4712 72.5408 46.3784C72.5418 51.308 72.5418 56.2384 72.5418 61.168Z" fill="#565D75"/>
<path d="M13.7031 53.0046C13.7041 55.3023 13.706 57.5999 13.707 59.8975C14.766 60.141 15.8251 60.3844 16.8841 60.6279C16.8841 60.51 16.8841 60.3922 16.8841 60.2733C15.9497 60.0646 15.0153 59.8559 14.0809 59.6472C14.0829 57.4549 14.0848 55.2636 14.0877 53.0713C13.9592 53.0501 13.8316 53.0278 13.7031 53.0046Z" fill="#D8D8D6"/>
<path d="M14.2168 37.4402C14.2168 39.3648 14.2168 41.2895 14.2158 43.2142C14.9106 43.3726 15.6063 43.5311 16.3011 43.6905C16.3069 43.5997 16.3127 43.5079 16.3185 43.4171C15.7116 43.2818 15.1048 43.1465 14.498 43.0113C14.5183 41.1755 14.5386 39.3397 14.5589 37.504C14.4448 37.4817 14.3308 37.4614 14.2168 37.4402Z" fill="#D8D8D6"/>
<path d="M32.9336 40.7319C33.7946 40.9116 34.6565 41.0914 35.5174 41.2711C35.5145 43.36 35.5116 45.448 35.5087 47.5369C34.6507 47.3262 33.7917 47.1166 32.9336 46.906C32.9336 44.8489 32.9336 42.7909 32.9336 40.7319Z" fill="#68A1B5"/>
<path d="M35.5058 47.1116C34.8063 46.9474 34.1067 46.7822 33.4071 46.6179C33.2496 46.7145 33.0921 46.8102 32.9336 46.9068C33.7917 47.1174 34.6507 47.3271 35.5087 47.5377C35.5078 47.3957 35.5068 47.2537 35.5058 47.1116Z" fill="#292C3A"/>
<path d="M33.4071 40.844C33.2496 40.8073 33.0911 40.7696 32.9336 40.7329C32.9336 42.7909 32.9336 44.8489 32.9336 46.9079C33.0911 46.8113 33.2486 46.7156 33.4071 46.619C33.4071 44.6934 33.4071 42.7687 33.4071 40.844Z" fill="#565D75"/>
<path d="M33.4072 40.844C33.4072 42.7687 33.4072 44.6933 33.4062 46.618C34.101 46.7764 34.7967 46.9349 35.4915 47.0943C35.4973 47.0035 35.5031 46.9117 35.5089 46.8209C34.9021 46.6856 34.2952 46.5503 33.6884 46.4151C33.7087 44.5793 33.729 42.7435 33.7493 40.9078C33.6353 40.8855 33.5212 40.8643 33.4072 40.844Z" fill="#D8D8D6"/>
<path d="M15.2535 53.3689C15.24 55.5467 15.2274 57.7235 15.2139 59.9014C15.3376 59.9294 15.4612 59.9564 15.5859 59.9844C15.6101 57.8134 15.6342 55.6424 15.6584 53.4713C15.5231 53.4375 15.3888 53.4027 15.2535 53.3689Z" fill="#D8D8D6"/>
<path d="M14.0859 54.7737C14.4725 54.8558 14.858 54.9379 15.2445 55.0201C15.2435 55.1428 15.2426 55.2664 15.2416 55.3891C14.8561 55.3022 14.4715 55.2143 14.0859 55.1273C14.0859 55.0104 14.0859 54.8925 14.0859 54.7737Z" fill="#D8D8D6"/>
<path d="M15.4824 55.0818C15.9269 55.1639 16.3714 55.246 16.8169 55.3282C16.8159 55.4509 16.8149 55.5745 16.814 55.6973C16.3704 55.6103 15.9269 55.5224 15.4824 55.4354C15.4824 55.3185 15.4824 55.2006 15.4824 55.0818Z" fill="#D8D8D6"/>
<path d="M15.4824 57.5767C15.9269 57.6588 16.3714 57.7409 16.8169 57.823C16.8159 57.9458 16.8149 58.0694 16.814 58.1921C16.3704 58.1052 15.9269 58.0173 15.4824 57.9303C15.4824 57.8134 15.4824 57.6955 15.4824 57.5767Z" fill="#D8D8D6"/>
<path d="M14.0859 57.2693C14.4725 57.3514 14.858 57.4335 15.2445 57.5157C15.2435 57.6384 15.2426 57.762 15.2416 57.8848C14.8561 57.7968 14.4715 57.7099 14.0859 57.6219C14.0859 57.505 14.0859 57.3872 14.0859 57.2693Z" fill="#D8D8D6"/>
<path d="M14.0879 53.0723C14.0869 53.6394 14.0869 54.2066 14.0859 54.7737C14.4725 54.8559 14.858 54.938 15.2445 55.0201" stroke="#9D9DA0" stroke-miterlimit="10"/>
<path d="M15.6582 53.4712C15.6582 54.0045 15.6582 54.5369 15.6582 55.0702C16.0447 55.1524 16.4303 55.2345 16.8168 55.3166" stroke="#9D9DA0" stroke-miterlimit="10"/>
<path d="M14.0859 55.1282C14.0859 55.8422 14.0859 56.5552 14.0859 57.2693C14.4725 57.3514 14.858 57.4335 15.2445 57.5157" stroke="#9D9DA0" stroke-miterlimit="10"/>
<path d="M15.6582 55.479C15.6582 56.193 15.6582 56.9061 15.6582 57.6201C16.0447 57.7022 16.4303 57.7843 16.8168 57.8665" stroke="#9D9DA0" stroke-miterlimit="10"/>
<path d="M14.0859 57.623C14.0849 58.2984 14.083 58.9728 14.082 59.6482C14.4598 59.7322 14.8377 59.8173 15.2155 59.9013" stroke="#9D9DA0" stroke-miterlimit="10"/>
<path d="M15.6015 57.9409C15.6006 58.6163 15.5986 59.2907 15.5977 59.9661C15.9755 60.0501 16.3533 60.1351 16.7311 60.2192" stroke="#9D9DA0" stroke-miterlimit="10"/>
<path d="M33.9016 64.7138C32.8426 64.4704 31.7835 64.2269 30.7245 63.9834C30.568 64.0723 30.4114 64.1621 30.2549 64.251C31.4705 64.5303 32.6861 64.8085 33.9026 65.0878C33.9016 64.9631 33.9016 64.8385 33.9016 64.7138Z" fill="#292C3A"/>
<path d="M30.7946 57.0906C30.6313 57.0394 30.467 56.9872 30.3037 56.936C30.3105 59.3747 30.3172 61.8134 30.325 64.2511C30.4834 64.1622 30.6409 64.0724 30.7994 63.9835C30.7965 61.6858 30.7956 59.3882 30.7946 57.0906Z" fill="#565D75"/>
<path d="M30.1307 64.1042C31.499 64.4386 32.8672 64.7729 34.2355 65.1072C33.8152 65.4134 33.3948 65.7197 32.9745 66.026C31.5627 65.6598 30.151 65.2927 28.7402 64.9265C29.2041 64.6521 29.6679 64.3786 30.1307 64.1042Z" fill="#442C16"/>
<path d="M34.2356 65.1072C34.2298 65.2946 34.223 65.4811 34.2172 65.6685C33.8124 65.9652 33.4085 66.2628 33.0036 66.5594C32.9939 66.3816 32.9843 66.2038 32.9746 66.026C33.3959 65.7197 33.8162 65.4135 34.2356 65.1072Z" fill="#0F0903"/>
<path d="M33.0035 66.5594C32.9938 66.3816 32.9842 66.2038 32.9745 66.026C31.5627 65.6599 30.151 65.2927 28.7402 64.9265C28.7441 65.0937 28.748 65.2608 28.7509 65.428C30.1694 65.8058 31.5869 66.1826 33.0035 66.5594Z" fill="#30200F"/>
<path d="M31.1044 57.1582C31.1025 59.3505 31.1006 61.5418 31.0977 63.7341C32.0321 63.9428 32.9665 64.1515 33.9008 64.3602C33.9008 62.1969 33.9008 60.0326 33.9008 57.8693C32.9693 57.6316 32.0369 57.3949 31.1044 57.1582Z" fill="#68A1B5"/>
<path d="M30.7207 57.0906C30.7217 59.3882 30.7236 61.6858 30.7246 63.9834C31.7836 64.2269 32.8427 64.4704 33.9017 64.7139C33.9017 64.596 33.9017 64.4781 33.9017 64.3593C32.9673 64.1506 32.0329 63.9419 31.0985 63.7332C31.1005 61.5409 31.1024 59.3495 31.1053 57.1572C30.9768 57.136 30.8483 57.1128 30.7207 57.0906Z" fill="#D8D8D6"/>
<path d="M32.272 57.4548C32.2585 59.6326 32.2459 61.8095 32.2324 63.9873C32.3561 64.0153 32.4798 64.0424 32.6044 64.0704C32.6286 61.8993 32.6528 59.7283 32.6769 57.5573C32.5416 57.5225 32.4064 57.4887 32.272 57.4548Z" fill="#D8D8D6"/>
<path d="M31.1033 58.8596C31.4898 58.9417 31.8753 59.0239 32.2618 59.106C32.2609 59.2287 32.2599 59.3524 32.2589 59.4751C31.8734 59.3881 31.4888 59.3002 31.1033 59.2132C31.1023 59.0954 31.1023 58.9775 31.1033 58.8596Z" fill="#D8D8D6"/>
<path d="M32.501 59.168C32.9455 59.2501 33.39 59.3322 33.8354 59.4143C33.8344 59.5371 33.8335 59.6607 33.8325 59.7834C33.389 59.6965 32.9455 59.6085 32.501 59.5216C32.501 59.4037 32.501 59.2858 32.501 59.168Z" fill="#D8D8D6"/>
<path d="M32.501 61.6626C32.9455 61.7447 33.39 61.8268 33.8354 61.909C33.8344 62.0317 33.8335 62.1554 33.8325 62.2781C33.389 62.1911 32.9455 62.1032 32.501 62.0162C32.501 61.8983 32.501 61.7805 32.501 61.6626Z" fill="#D8D8D6"/>
<path d="M31.1033 61.3545C31.4898 61.4366 31.8753 61.5187 32.2618 61.6009C32.2609 61.7236 32.2599 61.8473 32.2589 61.97C31.8734 61.883 31.4888 61.7951 31.1033 61.7081C31.1023 61.5902 31.1023 61.4724 31.1033 61.3545Z" fill="#D8D8D6"/>
<path d="M47.1758 40.4131C52.3135 41.2846 57.4503 42.1571 62.588 43.0286C62.5049 53.0248 62.4218 63.0211 62.3377 73.0174C57.4986 71.8212 52.6594 70.6241 47.8193 69.428C47.6048 59.7563 47.3903 50.0847 47.1758 40.4131Z" fill="#C1C1C1"/>
<path d="M31.1045 57.1582C31.1035 57.7254 31.1035 58.2925 31.1025 58.8597C31.4891 58.9418 31.8746 59.0239 32.2611 59.1061" stroke="#9D9DA0" stroke-miterlimit="10"/>
<path d="M32.6758 57.5574C32.6758 58.0907 32.6758 58.6231 32.6758 59.1564C33.0623 59.2386 33.4478 59.3207 33.8344 59.4028" stroke="#9D9DA0" stroke-miterlimit="10"/>
<path d="M31.1025 59.2134C31.1025 59.9274 31.1025 60.6405 31.1025 61.3545C31.4891 61.4366 31.8746 61.5187 32.2611 61.6009" stroke="#9D9DA0" stroke-miterlimit="10"/>
<path d="M32.6758 59.5649C32.6758 60.279 32.6758 60.992 32.6758 61.706C33.0623 61.7882 33.4478 61.8703 33.8344 61.9524" stroke="#9D9DA0" stroke-miterlimit="10"/>
<path d="M31.1025 61.709C31.1015 62.3844 31.0996 63.0588 31.0986 63.7341C31.4765 63.8182 31.8543 63.9032 32.2321 63.9873" stroke="#9D9DA0" stroke-miterlimit="10"/>
<path d="M32.6191 62.0269C32.6181 62.7022 32.6162 63.3766 32.6152 64.052C32.9931 64.1361 33.3709 64.2211 33.7487 64.3051" stroke="#9D9DA0" stroke-miterlimit="10"/>
<path d="M56.0644 54.3737C54.5706 54.0307 53.0776 53.6867 51.5838 53.3438C51.3625 53.4694 51.1422 53.595 50.9209 53.7206C52.6351 54.1138 54.3502 54.5071 56.0644 54.9003C56.0644 54.7244 56.0644 54.5496 56.0644 54.3737Z" fill="#292C3A"/>
<path d="M51.6811 43.6229C51.4502 43.5504 51.2192 43.477 50.9883 43.4045C50.9979 46.8432 51.0076 50.2819 51.0173 53.7216C51.2405 53.596 51.4637 53.4704 51.6869 53.3448C51.685 50.1032 51.683 46.8626 51.6811 43.6229Z" fill="#565D75"/>
<path d="M50.7389 53.5215C52.6686 53.993 54.5983 54.4645 56.5279 54.936C55.9356 55.3679 55.3423 55.7998 54.75 56.2317C52.7594 55.7147 50.7689 55.1978 48.7783 54.6809C49.4315 54.2944 50.0847 53.908 50.7389 53.5215Z" fill="#442C16"/>
<path d="M56.527 54.9351C56.5183 55.1988 56.5096 55.4626 56.5009 55.7273C55.9308 56.1457 55.3597 56.565 54.7896 56.9834C54.7761 56.7322 54.7626 56.4819 54.749 56.2307C55.3423 55.7988 55.9346 55.3669 56.527 54.9351Z" fill="#0F0903"/>
<path d="M6.86652 62.1882C6.86652 62.1882 5.92923 63.3477 5.87028 63.4153C6.0645 64.2675 6.86652 63.7554 6.86652 63.7554L7.90914 62.394L7.93233 34.7145L5.9872 31.811H4.60059L6.93803 35.2739L6.86652 62.1882Z" fill="#6A6A6B"/>
<path d="M54.7896 56.9833C54.776 56.7321 54.7625 56.4819 54.749 56.2307C52.7584 55.7138 50.7679 55.1968 48.7773 54.6799C48.7822 54.9157 48.788 55.1514 48.7928 55.3882C50.792 55.9196 52.7913 56.4519 54.7896 56.9833Z" fill="#30200F"/>
<path d="M52.1191 43.7175C52.1162 46.8084 52.1133 49.9002 52.1104 52.9911C53.4284 53.2858 54.7464 53.5795 56.0644 53.8742C56.0644 50.8229 56.0644 47.7717 56.0644 44.7195C54.7493 44.3852 53.4342 44.0518 52.1191 43.7175Z" fill="#68A1B5"/>
<path d="M51.5781 43.6228C51.5801 46.8634 51.582 50.1031 51.5839 53.3437C53.0778 53.6867 54.5707 54.0307 56.0646 54.3737C56.0646 54.2075 56.0646 54.0403 56.0646 53.8741C54.7466 53.5795 53.4286 53.2857 52.1105 52.991C52.1134 49.9002 52.1163 46.8084 52.1192 43.7175C51.9385 43.6856 51.7579 43.6537 51.5781 43.6228Z" fill="#D8D8D6"/>
<path d="M53.765 44.1348C53.7467 47.2053 53.7283 50.2769 53.709 53.3474C53.8839 53.3861 54.0588 53.4257 54.2327 53.4644C54.2665 50.4025 54.3003 47.3416 54.3351 44.2797C54.1457 44.2314 53.9554 44.1831 53.765 44.1348Z" fill="#D8D8D6"/>
<path d="M52.1172 46.1174C52.6612 46.2334 53.2062 46.3493 53.7502 46.4653C53.7492 46.6392 53.7473 46.8131 53.7463 46.986C53.2033 46.8624 52.6593 46.7397 52.1162 46.616C52.1162 46.4498 52.1162 46.2836 52.1172 46.1174Z" fill="#D8D8D6"/>
<path d="M54.0879 46.5522C54.715 46.6682 55.3421 46.7841 55.9692 46.9001C55.9673 47.074 55.9663 47.2479 55.9644 47.4209C55.3383 47.2972 54.7131 47.1745 54.0869 47.0508C54.0879 46.8846 54.0879 46.7184 54.0879 46.5522Z" fill="#D8D8D6"/>
<path d="M54.0879 50.0703C54.715 50.1863 55.3421 50.3022 55.9692 50.4181C55.9673 50.5921 55.9663 50.766 55.9644 50.9389C55.3383 50.8153 54.7131 50.6925 54.0869 50.5689C54.0879 50.4027 54.0879 50.2365 54.0879 50.0703Z" fill="#D8D8D6"/>
<path d="M52.1172 49.6355C52.6612 49.7514 53.2062 49.8674 53.7502 49.9833C53.7492 50.1572 53.7473 50.3312 53.7463 50.5041C53.2033 50.3804 52.6593 50.2577 52.1162 50.1341C52.1162 49.9688 52.1162 49.8017 52.1172 49.6355Z" fill="#D8D8D6"/>
<path d="M52.1191 43.7175C52.1182 44.5175 52.1172 45.3175 52.1172 46.1176C52.6612 46.2335 53.2062 46.3494 53.7502 46.4654" stroke="#9D9DA0" stroke-miterlimit="10"/>
<path d="M54.335 44.2798C54.335 45.0315 54.335 45.7832 54.335 46.5349C54.879 46.6508 55.424 46.7668 55.968 46.8827" stroke="#9D9DA0" stroke-miterlimit="10"/>
<path d="M52.1162 46.6162C52.1162 47.623 52.1162 48.6288 52.1172 49.6355C52.6612 49.7515 53.2062 49.8674 53.7502 49.9834" stroke="#9D9DA0" stroke-miterlimit="10"/>
<path d="M54.335 47.1118C54.335 48.1186 54.335 49.1244 54.3359 50.1312C54.8799 50.2471 55.4249 50.3631 55.9689 50.479" stroke="#9D9DA0" stroke-miterlimit="10"/>
<path d="M52.1161 50.135C52.1142 51.0867 52.1123 52.0394 52.1104 52.9911C52.6437 53.1099 53.1762 53.2288 53.7096 53.3476" stroke="#9D9DA0" stroke-miterlimit="10"/>
<path d="M54.2548 50.5833C54.2529 51.535 54.251 52.4876 54.249 53.4393C54.7824 53.5582 55.3148 53.677 55.8482 53.7959" stroke="#9D9DA0" stroke-miterlimit="10"/>
<path opacity="0.39" d="M42.9795 39.8025L47.1761 40.4131C47.3906 50.0848 47.6051 59.7564 47.8206 69.428C46.2252 70.2261 44.6299 71.0232 43.0346 71.8213C43.0152 61.1487 42.9979 50.4751 42.9795 39.8025Z" fill="#6E7374"/>
<path opacity="0.23" d="M7.75977 35.415L9.01883 36.0827V44.135L19.2392 46.2297V42.1755L26.3163 43.0606L35.7772 45.5408L42.6561 46.9862L47.4846 52.7129L51.5827 53.3438L59.6357 54.9728C60.6261 53.3283 61.6098 51.6645 62.5867 49.9805C69.4405 38.1648 75.3107 26.4632 80.3489 15.0273C74.4285 24.3608 68.5081 33.6952 62.5876 43.0287C44.3114 39.9272 26.036 36.8257 7.75977 33.7242V35.415Z" fill="#6E7374"/>
<path d="M4.06463 49.9832C14.1584 52.0093 24.2522 54.0354 34.3451 56.0606C34.3083 53.8132 34.2716 51.5668 34.2349 49.3195C24.0309 47.4045 13.827 45.4885 3.62207 43.5735C3.76991 45.7107 3.91775 47.847 4.06463 49.9832Z" fill="#59391E"/>
<path d="M34.3455 56.0616C36.5554 55.3254 38.7663 54.5882 40.9761 53.8519C40.9394 51.9369 40.9027 50.021 40.866 48.106C38.6561 48.5108 36.4452 48.9166 34.2354 49.3214C34.2721 51.5678 34.3088 53.8142 34.3455 56.0616Z" fill="#2D221B"/>
<path d="M3.62305 43.5744C5.03769 43.3522 6.45136 43.1299 7.866 42.9067C7.88822 43.4237 7.91045 43.9406 7.93364 44.4585C6.49677 44.1638 5.05991 43.8691 3.62305 43.5744Z" fill="#2D221B"/>
<path d="M20.6975 46.7794C20.6434 44.5668 20.5883 42.3552 20.5342 40.1426C22.0822 40.4518 23.6302 40.7619 25.1781 41.0711C25.1385 43.247 25.0999 45.4219 25.0603 47.5978C23.606 47.3253 22.1517 47.0528 20.6975 46.7794Z" fill="#1C120B"/>
<path opacity="0.23" d="M21.9162 44.4798C21.8921 43.5174 21.8689 42.5551 21.8447 41.5928C22.5182 41.7271 23.1917 41.8623 23.8652 41.9966C23.8478 42.9435 23.8314 43.8894 23.814 44.8363C23.1821 44.7175 22.5491 44.5986 21.9162 44.4798Z" fill="#6E7374"/>
<path d="M24.2118 45.8857C24.3046 45.8906 24.3973 45.8964 24.4901 45.9012C24.4553 46.3456 24.4205 46.7901 24.3857 47.2345C24.293 47.2355 24.2012 47.2365 24.1084 47.2374C24.1442 46.7872 24.178 46.3369 24.2118 45.8857Z" fill="#B29400"/>
<path d="M90.3383 22.9646C89.4948 23.1404 88.6512 23.3173 87.8076 23.4931C87.8105 25.5385 87.8134 27.585 87.8163 29.6304C88.657 29.4246 89.4976 29.2188 90.3383 29.013C90.3383 26.9965 90.3383 24.9801 90.3383 22.9646Z" fill="#68A1B5"/>
<path d="M87.8193 29.2128C88.5044 29.0515 89.1895 28.8901 89.8746 28.7297C90.0292 28.8244 90.1838 28.9181 90.3374 29.0128C89.4968 29.2186 88.6561 29.4244 87.8154 29.6302C87.8174 29.4911 87.8183 29.352 87.8193 29.2128Z" fill="#292C3A"/>
<path d="M89.875 23.0738C90.0296 23.0371 90.1842 23.0013 90.3388 22.9646C90.3388 24.9801 90.3388 26.9965 90.3388 29.012C90.1842 28.9173 90.0296 28.8236 89.876 28.7289C89.875 26.8439 89.875 24.9588 89.875 23.0738Z" fill="#565D75"/>
<path d="M89.8746 23.0737C89.8746 24.9588 89.8746 26.8438 89.8756 28.7298C89.1943 28.8854 88.5141 29.0409 87.8328 29.1965C87.827 29.1076 87.8222 29.0178 87.8164 28.9289C88.4107 28.7965 89.0049 28.6641 89.5992 28.5308C89.5789 26.7327 89.5596 24.9346 89.5393 23.1365C89.6504 23.1143 89.7625 23.094 89.8746 23.0737Z" fill="#D8D8D6"/>
<path d="M78.0717 24.4429C77.1364 24.638 76.201 24.8332 75.2666 25.0284C75.2695 27.296 75.2734 29.5637 75.2763 31.8314C76.2078 31.6034 77.1402 31.3753 78.0717 31.1463C78.0717 28.9125 78.0717 26.6777 78.0717 24.4429Z" fill="#68A1B5"/>
<path d="M75.2938 31.3501C76.0513 31.1752 76.8089 31.0003 77.5665 30.8254C77.7346 30.9327 77.9027 31.0399 78.0718 31.1472C77.1403 31.3752 76.2079 31.6032 75.2764 31.8322C75.2822 31.6709 75.288 31.5105 75.2938 31.3501Z" fill="#292C3A"/>
<path d="M77.5576 24.5636C77.7286 24.5231 77.9006 24.4835 78.0717 24.4429C78.0717 26.6777 78.0717 28.9125 78.0717 31.1463C77.9006 31.042 77.7296 30.9367 77.5586 30.8323C77.5576 28.7434 77.5576 26.6535 77.5576 24.5636Z" fill="#565D75"/>
<path d="M77.5568 24.5637C77.5568 26.6536 77.5578 28.7435 77.5578 30.8324C76.8031 31.0044 76.0484 31.1773 75.2938 31.3493C75.288 31.2508 75.2812 31.1512 75.2754 31.0527C75.9344 30.9058 76.5924 30.759 77.2514 30.6121C77.2292 28.6188 77.207 26.6256 77.1857 24.6333C77.3094 24.6101 77.4331 24.5869 77.5568 24.5637Z" fill="#D8D8D6"/>
<path d="M96.3888 33.7241C89.3253 35.1415 82.2618 36.5599 75.1982 37.9773C75.2243 36.4053 75.2495 34.8323 75.2755 33.2603C82.4164 31.9202 89.5572 30.5791 96.699 29.239C96.5956 30.7337 96.4922 32.2284 96.3888 33.7241Z" fill="#59391E"/>
<path d="M75.1985 37.9774C73.6786 37.5957 72.1586 37.2141 70.6386 36.8324C70.6377 35.358 70.6367 33.8836 70.6357 32.4092C72.1828 32.6923 73.7288 32.9763 75.2758 33.2594C75.2497 34.8324 75.2246 36.4044 75.1985 37.9774Z" fill="#2D221B"/>
<path d="M96.6994 29.2382C95.7099 29.0826 94.7194 28.927 93.73 28.7715C93.7145 29.1338 93.699 29.4952 93.6826 29.8575C94.6885 29.6507 95.6935 29.4449 96.6994 29.2382Z" fill="#2D221B"/>
<path d="M84.7489 31.4817C84.7875 29.9338 84.8252 28.385 84.8639 26.8372C83.7807 27.0536 82.6975 27.27 81.6143 27.4874C81.6413 29.0101 81.6693 30.5329 81.6964 32.0546C82.7139 31.8633 83.7314 31.672 84.7489 31.4817Z" fill="#1C120B"/>
<path opacity="0.23" d="M83.8957 29.8719C83.9121 29.1984 83.9285 28.525 83.9459 27.8516C83.4744 27.9462 83.0038 28.04 82.5322 28.1347C82.5438 28.7975 82.5564 29.4593 82.568 30.1221C83.0105 30.0381 83.4531 29.955 83.8957 29.8719Z" fill="#6E7374"/>
<path d="M82.2899 30.8564C82.2252 30.8603 82.1595 30.8632 82.0947 30.8671C82.1189 31.1782 82.143 31.4893 82.1672 31.8004C82.2319 31.8014 82.2967 31.8014 82.3614 31.8024C82.3373 31.4864 82.3131 31.1714 82.2899 30.8564Z" fill="#B29400"/>
<path d="M71.4651 46.6567C71.2399 46.7292 71.0138 46.8017 70.7887 46.8751C70.7655 51.3003 70.7423 55.7245 70.7191 60.1497C69.2001 60.5468 67.6811 60.9439 66.1621 61.341C66.1621 61.5632 66.1621 61.7854 66.1621 62.0077C67.9149 61.5226 69.6687 61.0376 71.4216 60.5526" fill="#D8D8D6"/>
<path d="M67.876 60.8925C67.8847 56.4403 67.8924 51.989 67.9011 47.5368C68.1968 47.474 68.4934 47.4112 68.7891 47.3484C68.7853 51.7842 68.7814 56.22 68.7775 60.6558C68.477 60.736 68.1765 60.8143 67.876 60.8925Z" fill="#D8D8D6"/>
<path d="M70.7689 50.7349C70.109 50.874 69.448 51.0141 68.7881 51.1532C68.7871 51.4238 68.7861 51.6943 68.7852 51.9648C69.4451 51.8267 70.1041 51.6875 70.7641 51.5494C70.766 51.2788 70.767 51.0073 70.7689 50.7349Z" fill="#D8D8D6"/>
<path d="M70.7475 55.5535C70.0875 55.6926 69.4265 55.8327 68.7666 55.9718C68.7656 56.2424 68.7646 56.5129 68.7637 56.7834C69.4236 56.6453 70.0826 56.5061 70.7426 56.368C70.7446 56.0974 70.7465 55.825 70.7475 55.5535Z" fill="#D8D8D6"/>
<path d="M67.9965 56.1689C67.3365 56.3081 66.6756 56.4482 66.0156 56.5873C66.0146 56.8578 66.0137 57.1284 66.0127 57.3989C66.6727 57.2607 67.3317 57.1216 67.9916 56.9834C67.9936 56.7119 67.9955 56.4404 67.9965 56.1689Z" fill="#D8D8D6"/>
<path d="M67.8754 51.2935C67.2154 51.4326 66.5545 51.5727 65.8945 51.7118C65.8935 51.9824 65.8926 52.2529 65.8916 52.5234C66.5516 52.3853 67.2106 52.2461 67.8706 52.108C67.8735 51.8374 67.8744 51.5659 67.8754 51.2935Z" fill="#D8D8D6"/>
<path d="M70.7255 46.8586C70.7187 48.1456 70.7119 49.4316 70.7052 50.7186C70.0665 50.8635 69.4268 51.0084 68.7881 51.1543" stroke="#9D9DA0" stroke-width="2" stroke-miterlimit="10"/>
<path d="M70.7245 51.6257C70.7177 52.9127 70.711 54.1987 70.7042 55.4857C70.0655 55.6306 69.4258 55.7755 68.7871 55.9214" stroke="#9D9DA0" stroke-width="2" stroke-miterlimit="10"/>
<path d="M70.6776 56.3921C70.6709 57.6791 70.6641 58.9651 70.6573 60.252C70.0186 60.397 69.3789 60.5419 68.7402 60.6878" stroke="#9D9DA0" stroke-width="2" stroke-miterlimit="10"/>
<path d="M67.8299 56.9834C67.8231 58.2704 67.8164 59.5564 67.8096 60.8433C67.2608 61.0095 66.7119 61.1748 66.1621 61.3409" stroke="#9D9DA0" stroke-width="2" stroke-miterlimit="10"/>
<path d="M67.8299 52.1843C67.8289 53.5032 67.828 54.823 67.826 56.1419C67.2714 56.2568 66.7168 56.3718 66.1621 56.4858" stroke="#9D9DA0" stroke-width="2" stroke-miterlimit="10"/>
<path d="M67.8291 47.5977C67.8224 48.8353 67.8166 50.073 67.8098 51.3107C67.2658 51.4267 66.7218 51.5416 66.1777 51.6576" stroke="#9D9DA0" stroke-width="2" stroke-miterlimit="10"/>
<path d="M87.8125 42.1156L94.1918 40.4644V55.2539L87.8125 56.7766V42.1156Z" fill="#68A1B5"/>
<path d="M93.0719 54.6384C91.3191 55.1235 89.5653 55.6085 87.8125 56.0935C87.8144 56.4211 87.8154 56.7496 87.8173 57.0771C89.9422 56.4694 92.067 55.8616 94.1918 55.2539C93.8189 55.0481 93.4449 54.8433 93.0719 54.6384Z" fill="#292C3A"/>
<path d="M94.1922 55.2539C93.8192 55.0491 93.4453 54.8443 93.0723 54.6385C93.0868 50.0065 93.1013 45.3746 93.1148 40.7426C93.4733 40.6499 93.8327 40.5571 94.1912 40.4644C94.1922 45.3939 94.1922 50.3234 94.1922 55.2539Z" fill="#565D75"/>
<path d="M93.1154 40.7427C92.8903 40.8151 92.6642 40.8876 92.439 40.961C92.4158 45.3862 92.3926 49.8104 92.3694 54.2356C90.8505 54.6327 89.3315 55.0298 87.8125 55.4269C87.8125 55.6491 87.8125 55.8714 87.8125 56.0936C89.5653 55.6086 91.3191 55.1235 93.0719 54.6385" fill="#D8D8D6"/>
<path d="M89.5254 54.9784C89.5341 50.5262 89.5418 46.075 89.5505 41.6227C89.8462 41.5599 90.1428 41.4971 90.4385 41.4343C90.4347 45.8701 90.4308 50.3059 90.4269 54.7417C90.1264 54.8219 89.8259 54.9002 89.5254 54.9784Z" fill="#D8D8D6"/>
<path d="M92.4193 44.821C91.7594 44.9602 91.0984 45.1003 90.4384 45.2394C90.4375 45.5099 90.4365 45.7805 90.4355 46.051C91.0955 45.9128 91.7545 45.7737 92.4145 45.6355C92.4164 45.365 92.4174 45.0925 92.4193 44.821Z" fill="#D8D8D6"/>
<path d="M92.3978 49.6394C91.7378 49.7785 91.0769 49.9186 90.417 50.0578C90.416 50.3283 90.415 50.5988 90.4141 50.8694C91.074 50.7312 91.733 50.5921 92.393 50.4539C92.3949 50.1824 92.3968 49.9109 92.3978 49.6394Z" fill="#D8D8D6"/>
<path d="M89.6469 50.2549C88.9869 50.394 88.326 50.5341 87.666 50.6732C87.665 50.9438 87.6641 51.2143 87.6631 51.4849C88.3231 51.3467 88.9821 51.2076 89.642 51.0694C89.644 50.7979 89.6459 50.5264 89.6469 50.2549Z" fill="#D8D8D6"/>
<path d="M89.5258 45.3794C88.8658 45.5185 88.2049 45.6586 87.5449 45.7978C87.5439 46.0683 87.543 46.3388 87.542 46.6094C88.202 46.4712 88.861 46.3321 89.521 46.1939C89.5229 45.9234 89.5249 45.6509 89.5258 45.3794Z" fill="#D8D8D6"/>
<path d="M92.3759 40.9446C92.3691 42.2316 92.3623 43.5176 92.3556 44.8045C91.7169 44.9495 91.0772 45.0944 90.4385 45.2403" stroke="#9D9DA0" stroke-width="2" stroke-miterlimit="10"/>
<path d="M92.3749 45.7107C92.3681 46.9977 92.3614 48.2837 92.3546 49.5706C91.7159 49.7156 91.0762 49.8605 90.4375 50.0064" stroke="#9D9DA0" stroke-width="2" stroke-miterlimit="10"/>
<path d="M92.328 50.478C92.3213 51.765 92.3145 53.051 92.3077 54.338C91.669 54.4829 91.0293 54.6278 90.3906 54.7737" stroke="#9D9DA0" stroke-width="2" stroke-miterlimit="10"/>
<path d="M89.4802 51.0693C89.4735 52.3563 89.4667 53.6423 89.46 54.9293C88.9111 55.0955 88.3623 55.2607 87.8125 55.4269" stroke="#9D9DA0" stroke-width="2" stroke-miterlimit="10"/>
<path d="M89.4802 46.2703C89.4793 47.5891 89.4783 48.9089 89.4764 50.2278C88.9218 50.3428 88.3671 50.4578 87.8125 50.5718" stroke="#9D9DA0" stroke-width="2" stroke-miterlimit="10"/>
<path d="M89.4795 41.6836C89.4727 42.9213 89.4669 44.159 89.4601 45.3967C88.9161 45.5126 88.3721 45.6276 87.8281 45.7435" stroke="#9D9DA0" stroke-width="2" stroke-miterlimit="10"/>
<path d="M74.6348 65.252C78.6004 63.8491 82.567 62.4471 86.5326 61.0442C89.7088 61.708 92.8859 62.3717 96.0621 63.0355C91.7505 64.5679 87.439 66.1003 83.1284 67.6336C80.2962 66.8404 77.466 66.0462 74.6348 65.252Z" fill="#6D5745"/>
<path d="M90.5752 49.5601C90.5926 49.6808 90.61 49.8006 90.6264 49.9214C90.9636 50.0866 91.3018 50.2509 91.64 50.4151C91.6362 50.2992 91.6313 50.1842 91.6275 50.0683C91.2767 49.8992 90.926 49.7291 90.5752 49.5601Z" fill="#0F0903"/>
<path d="M76.9238 54.1851C76.9354 57.5822 76.948 60.9803 76.9596 64.3775C79.6719 63.4355 82.3853 62.4934 85.0976 61.5514C85.1411 58.0045 85.1855 54.4576 85.229 50.9116C82.4606 52.0034 79.6922 53.0943 76.9238 54.1851Z" fill="#1C120B"/>
<path d="M82.2135 54.0383C82.4783 54.4557 82.742 54.8731 83.0068 55.2905C83 58.9727 82.9933 62.6539 82.9865 66.3361C82.7169 66.3361 82.4473 66.3361 82.1777 66.3361C82.1893 62.2365 82.2019 58.1369 82.2135 54.0383Z" fill="white"/>
<path d="M82.1773 66.3351C81.8874 66.2752 81.5975 66.2163 81.3076 66.1564C81.3144 62.0723 81.3211 57.9872 81.3269 53.9031C81.6342 53.9185 81.9405 53.933 82.2478 53.9485C82.2246 58.078 82.2005 62.2066 82.1773 66.3351Z" fill="#A0A0A0"/>
<path d="M74.9434 52.217L80.83 43.4121L89.6009 44.6285L83.865 54.1291L74.9434 52.217Z" fill="#442C16"/>
<path d="M83.872 54.9213C83.8701 54.6575 83.8672 54.3928 83.8652 54.129C85.7775 50.9618 87.6888 47.7956 89.6011 44.6284C91.1597 46.7222 92.7193 48.8159 94.2779 50.9106C94.2856 51.1618 94.2924 51.413 94.3001 51.6643C92.7589 49.6285 91.2167 47.5927 89.6755 45.5569C87.741 48.6777 85.8065 51.7995 83.872 54.9213Z" fill="#0F0903"/>
<path d="M74.9794 52.9998C74.9775 53.25 74.9765 53.4993 74.9746 53.7495C77.9198 54.4104 80.8651 55.0703 83.8103 55.7312C83.8306 55.4616 83.8509 55.1921 83.8712 54.9225C80.9076 54.2809 77.944 53.6403 74.9794 52.9998Z" fill="#C1C1C1"/>
<path d="M83.8714 54.9215C83.8511 55.1911 83.8308 55.4606 83.8105 55.7302C85.7847 52.5775 87.7578 49.4258 89.7319 46.2731C91.393 48.4886 93.054 50.704 94.7151 52.9195C94.747 52.7118 94.7798 52.5031 94.8117 52.2954C93.0985 50.049 91.3862 47.8026 89.673 45.5562C87.7404 48.6779 85.8059 51.7997 83.8714 54.9215Z" fill="white"/>
<path d="M94.3973 52.4662C91.7304 52.1773 89.0634 51.8874 86.3975 51.5986C87.5106 49.8295 88.6228 48.0604 89.736 46.2913C91.2898 48.3493 92.8435 50.4072 94.3973 52.4662Z" fill="#C1C1C1"/>
<path d="M91.7368 63.3109C91.447 63.251 91.1571 63.1921 90.8672 63.1322C90.874 59.0481 90.8807 54.963 90.8865 50.8789C91.1648 50.8779 91.4431 50.8769 91.7223 50.876C91.7272 55.021 91.732 59.1659 91.7368 63.3109Z" fill="#A0A0A0"/>
<path d="M91.7731 51.0142C92.0378 51.4316 92.3016 51.849 92.5664 52.2664C92.5596 55.9485 92.5528 59.6297 92.5461 63.3119C92.2765 63.3119 92.0069 63.3119 91.7373 63.3119C91.7499 59.2123 91.7615 55.1128 91.7731 51.0142Z" fill="white"/>
<path d="M74.9434 52.217C74.9559 52.4779 74.9685 52.7388 74.9801 52.9987C77.9437 53.6393 80.9082 54.2799 83.8718 54.9205C83.8699 54.6567 83.867 54.3919 83.865 54.1282C80.8908 53.4915 77.9176 52.8547 74.9434 52.217Z" fill="#30200F"/>
<path d="M78.4814 54.5349C78.4834 55.7562 78.4853 56.9775 78.4882 58.1987C79.4332 58.0181 80.3773 57.8364 81.3223 57.6557C81.3233 56.8287 81.3252 56.0006 81.3262 55.1736C80.3773 54.96 79.4294 54.7475 78.4814 54.5349Z" fill="#442C16"/>
<path d="M84.2543 55.0044C84.2504 55.6527 84.2475 56.302 84.2436 56.9503C83.8301 57.0779 83.4165 57.2054 83.0029 57.3329C83.0039 56.7387 83.0049 56.1435 83.0058 55.5493C83.2745 55.6092 83.5431 55.6701 83.8117 55.73C83.9586 55.4875 84.1064 55.2459 84.2543 55.0044Z" fill="#442C16"/>
<path d="M84.0566 58.2249C84.162 58.1949 84.2673 58.165 84.3726 58.135L84.3987 60.1959L84.076 60.308C84.0692 59.6143 84.0634 58.9196 84.0566 58.2249Z" fill="#B29400"/>
<path d="M72.9023 67.0617C73.4937 66.8733 74.0851 66.6839 74.6764 66.4955C76.9888 66.8211 79.8084 67.0124 82.9971 66.7854C88.5445 66.3912 93.0078 64.8916 96.0448 63.5737C97.5252 63.8617 99.0046 64.1496 100.485 64.4375C95.1848 66.625 89.8838 68.8115 84.5837 70.999C80.6906 69.6869 76.7965 68.3738 72.9023 67.0617Z" fill="#6D5745"/>
<path d="M84.5833 70.999C84.5631 71.4512 84.5428 71.9024 84.5234 72.3546C89.8303 70.1285 95.1381 67.9024 100.445 65.6753C100.458 65.2424 100.472 64.8105 100.485 64.3777C95.1845 66.5854 89.8844 68.7922 84.5833 70.999Z" fill="#4F4034"/>
<path d="M84.5238 70.9546C84.5229 71.4212 84.5219 71.8879 84.5209 72.3556C80.6722 71.0444 76.8245 69.7333 72.9758 68.4222C72.9516 67.969 72.9275 67.5159 72.9033 67.0618C76.7762 68.3594 80.65 69.657 84.5238 70.9546Z" fill="#4F4034"/>
<path d="M83.1275 67.6346C83.1265 68.1013 83.1255 68.568 83.1246 69.0356C80.3088 68.1892 77.493 67.3428 74.6763 66.4964C74.6618 66.0819 74.6483 65.6674 74.6338 65.2529C77.466 66.0462 80.2962 66.8404 83.1275 67.6346Z" fill="#4F4034"/>
<path d="M83.1279 67.6345C83.1269 68.1012 83.126 68.5679 83.125 69.0355C87.424 67.4683 91.723 65.9012 96.022 64.335C96.0355 63.9021 96.049 63.4702 96.0626 63.0374C91.751 64.5688 87.4395 66.1021 83.1279 67.6345Z" fill="#4F4034"/>
<path d="M0.328125 32.8208C0.384169 33.4401 0.440214 34.0595 0.495292 34.6788C21.1882 38.017 41.8802 41.3552 62.5732 44.6934C62.6389 43.9997 62.7036 43.306 62.7693 42.6132C41.9556 39.3484 21.1419 36.0846 0.328125 32.8208Z" fill="#C1C1C1"/>
<path d="M0 32.7782C8.04141 21.8525 16.0828 10.9257 24.1242 0C44.9399 1.26862 65.7556 2.53627 86.5713 3.80488C78.6371 16.7413 70.7039 29.6767 62.7698 42.6122C41.8468 39.3348 20.9239 36.0565 0 32.7782Z" fill="#541515"/>
<path d="M86.1719 4.32474C86.3052 4.1518 86.4386 3.97788 86.5719 3.80493C92.0478 12.6505 97.5238 21.4969 103 30.3425C102.71 30.3705 102.42 30.3995 102.13 30.4275C96.8107 21.7269 91.4913 13.0253 86.1719 4.32474Z" fill="#541515"/>
<path d="M102.129 30.4284C101.781 30.3772 101.432 30.325 101.084 30.2738C96.1134 22.1404 91.1428 14.0079 86.1723 5.87449C78.3502 18.4766 70.5291 31.0787 62.708 43.6817C62.7293 43.3252 62.7496 42.9696 62.7708 42.6131C70.5716 29.8506 78.3715 17.0882 86.1723 4.32471C91.4916 13.0253 96.811 21.7269 102.129 30.4284Z" fill="#FFFFF8"/>
<path d="M101.084 30.2729C99.7747 30.1222 98.4654 29.9724 97.1551 29.8217C97.1802 28.9821 97.2053 28.1424 97.2304 27.3038C93.2213 20.6805 89.2122 14.0572 85.2031 7.43492C85.5259 6.9151 85.8486 6.39433 86.1713 5.87451C91.1429 14.007 96.1134 22.1404 101.084 30.2729Z" fill="#AAAAAA"/>
<path d="M60.7142 72.2803C60.7142 72.2803 59.7769 73.4397 59.7179 73.5073C59.9122 74.3595 60.7142 73.8474 60.7142 73.8474L61.7568 72.4861L61.78 44.8065L59.8349 41.9031H58.4482L60.7857 45.3659L60.7142 72.2803Z" fill="#6A6A6B"/>
</svg>
