<svg width="115" height="82" viewBox="0 0 115 82" fill="none" xmlns="http://www.w3.org/2000/svg">
<g clip-path="url(#clip0_98_1671)">
<path d="M9.88867 35.5779C10.0119 46.3563 10.1361 57.1337 10.2593 67.9121C23.1705 71.2136 36.0806 74.515 48.9918 77.8165C50.7604 76.9316 52.529 76.0479 54.2975 75.1631C59.6621 76.4892 65.0267 77.8165 70.3923 79.1426C70.4844 68.0599 70.5766 56.9773 70.6698 45.8946L9.88867 35.5779Z" fill="#D8D8D6"/>
<path d="M70.6689 45.8935L95.719 6.39722L109.073 28.4597L108.886 34.7112L70.6689 45.8935Z" fill="#D8D8D6"/>
<path d="M16.5205 39.5745C17.4749 39.7737 18.4305 39.9729 19.3849 40.1722C19.3817 42.4881 19.3785 44.803 19.3753 47.1189C18.424 46.8854 17.4717 46.6529 16.5205 46.4194C16.5205 44.1378 16.5205 41.8561 16.5205 39.5745Z" fill="#68A1B5"/>
<path d="M70.2236 45.7243L108.441 34.542C108.345 43.9557 108.248 53.3684 108.151 62.7821C95.564 68.2356 82.9774 73.6891 70.3907 79.1415C70.3361 68.0031 70.2804 56.8637 70.2236 45.7243Z" fill="#D8D8D6"/>
<path d="M19.372 46.6465C18.5965 46.4644 17.8209 46.2812 17.0454 46.0991C16.8708 46.2062 16.6962 46.3123 16.5205 46.4194C17.4717 46.6529 18.424 46.8854 19.3753 47.1189C19.3742 46.9614 19.3731 46.8039 19.372 46.6465Z" fill="#292C3A"/>
<path d="M17.0464 39.6977C16.8718 39.6569 16.6961 39.6152 16.5215 39.5745C16.5215 41.8561 16.5215 44.1378 16.5215 46.4205C16.6961 46.3134 16.8707 46.2073 17.0464 46.1002C17.0453 43.9653 17.0453 41.8315 17.0464 39.6977Z" fill="#565D75"/>
<path d="M20.0037 65.4065C18.8296 65.1366 17.6556 64.8666 16.4815 64.5967C16.308 64.6952 16.1345 64.7948 15.9609 64.8934C17.3085 65.203 18.6561 65.5115 20.0047 65.8211C20.0037 65.6829 20.0037 65.5447 20.0037 65.4065Z" fill="#292C3A"/>
<path d="M16.5578 56.9548C16.3768 56.8981 16.1947 56.8402 16.0137 56.7834C16.0212 59.4872 16.0287 62.1909 16.0372 64.8935C16.2129 64.795 16.3875 64.6954 16.5632 64.5968C16.5611 62.0495 16.5589 59.5022 16.5578 56.9548Z" fill="#565D75"/>
<path d="M15.8227 64.7307C17.3395 65.1013 18.8564 65.472 20.3732 65.8426C19.9072 66.1822 19.4412 66.5218 18.9753 66.8613C17.4102 66.4553 15.8452 66.0483 14.2812 65.6423C14.7954 65.3381 15.3085 65.0339 15.8227 64.7307Z" fill="#442C16"/>
<path d="M20.3735 65.8425C20.3671 66.0503 20.3596 66.2571 20.3532 66.4649C19.9043 66.7938 19.4566 67.1237 19.0077 67.4526C18.997 67.2555 18.9863 67.0583 18.9756 66.8612C19.4416 66.5217 19.9075 66.1821 20.3735 65.8425Z" fill="#0F0903"/>
<path d="M19.0074 67.4527C18.9967 67.2556 18.986 67.0585 18.9753 66.8614C17.4102 66.4554 15.8452 66.0483 14.2812 65.6423C14.2855 65.8277 14.2898 66.013 14.293 66.1983C15.8645 66.6161 17.4359 67.0349 19.0074 67.4527Z" fill="#30200F"/>
<path d="M16.902 57.0286C16.8999 59.4591 16.8977 61.8886 16.8945 64.3192C17.9304 64.5505 18.9662 64.7819 20.0021 65.0133C20.0021 62.6149 20.0021 60.2154 20.0021 57.817C18.9694 57.5545 17.9357 57.2921 16.902 57.0286Z" fill="#68A1B5"/>
<path d="M74.6318 51.4381L81.7039 49.6074V66.0043L74.6318 67.6936V51.4381Z" fill="#68A1B5"/>
<path d="M80.4624 65.322C78.5192 65.8598 76.575 66.3975 74.6318 66.9353C74.634 67.2984 74.635 67.6626 74.6372 68.0257C76.9928 67.3519 79.3483 66.6782 81.7039 66.0044C81.2904 65.7773 80.8759 65.5502 80.4624 65.322Z" fill="#292C3A"/>
<path d="M81.7034 66.0043C81.2899 65.7772 80.8754 65.5501 80.4619 65.3219C80.478 60.1866 80.4941 55.0513 80.509 49.9159C80.9065 49.8131 81.3049 49.7103 81.7024 49.6074C81.7034 55.0738 81.7034 60.539 81.7034 66.0043Z" fill="#565D75"/>
<path d="M16.4766 56.9548C16.4776 59.5022 16.4798 62.0495 16.4808 64.5968C17.6549 64.8667 18.8289 65.1367 20.003 65.4066C20.003 65.2759 20.003 65.1452 20.003 65.0135C18.9671 64.7821 17.9313 64.5507 16.8954 64.3193C16.8975 61.8888 16.8997 59.4593 16.9029 57.0287C16.7604 57.0041 16.619 56.9795 16.4766 56.9548Z" fill="#D8D8D6"/>
<path d="M17.046 39.6978C17.046 41.8316 17.046 43.9654 17.0449 46.0993C17.8151 46.2749 18.5864 46.4506 19.3566 46.6274C19.363 46.5267 19.3694 46.4249 19.3758 46.3242C18.7031 46.1742 18.0304 46.0243 17.3577 45.8743C17.3802 43.839 17.4027 41.8037 17.4252 39.7685C17.2988 39.7449 17.1724 39.7213 17.046 39.6978Z" fill="#D8D8D6"/>
<path d="M37.7949 43.3484C38.7494 43.5476 39.7049 43.7469 40.6593 43.9461C40.6561 46.2621 40.6529 48.5769 40.6497 50.8929C39.6984 50.6593 38.7461 50.4269 37.7949 50.1934C37.7949 47.9117 37.7949 45.63 37.7949 43.3484Z" fill="#68A1B5"/>
<path d="M40.6455 50.4204C39.8699 50.2383 39.0944 50.0551 38.3188 49.873C38.1442 49.9802 37.9696 50.0862 37.7939 50.1933C38.7452 50.4268 39.6975 50.6593 40.6487 50.8928C40.6487 50.7353 40.6476 50.5779 40.6455 50.4204Z" fill="#292C3A"/>
<path d="M38.3198 43.4716C38.1452 43.4309 37.9695 43.3891 37.7949 43.3484C37.7949 45.63 37.7949 47.9117 37.7949 50.1944C37.9695 50.0873 38.1441 49.9813 38.3198 49.8742C38.3198 47.7392 38.3198 45.6054 38.3198 43.4716Z" fill="#565D75"/>
<path d="M38.3204 43.4714C38.3204 45.6053 38.3193 47.7391 38.3193 49.8729C39.0895 50.0486 39.8608 50.2243 40.631 50.401C40.6374 50.3004 40.6438 50.1986 40.6503 50.0979C39.9776 49.9479 39.3048 49.798 38.6321 49.648C38.6546 47.6127 38.6771 45.5774 38.6996 43.5421C38.5732 43.5186 38.4468 43.495 38.3204 43.4714Z" fill="#D8D8D6"/>
<path d="M18.1953 57.3574C18.1803 59.7719 18.1664 62.1853 18.1514 64.5998C18.2885 64.6309 18.4256 64.6609 18.5638 64.6919C18.5906 62.2849 18.6173 59.878 18.6441 57.471C18.4942 57.4335 18.3453 57.396 18.1953 57.3574Z" fill="#D8D8D6"/>
<path d="M16.9004 58.916C17.3289 59.0071 17.7563 59.0981 18.1848 59.1892C18.1837 59.3252 18.1826 59.4623 18.1815 59.5984C17.7541 59.502 17.3278 59.4045 16.9004 59.3081C16.9004 59.1774 16.9004 59.0467 16.9004 58.916Z" fill="#D8D8D6"/>
<path d="M18.4492 59.2578C18.942 59.3489 19.4347 59.4399 19.9285 59.531C19.9275 59.667 19.9264 59.8041 19.9253 59.9402C19.4337 59.8438 18.942 59.7463 18.4492 59.6499C18.4492 59.5192 18.4492 59.3885 18.4492 59.2578Z" fill="#D8D8D6"/>
<path d="M18.4492 62.0237C18.942 62.1147 19.4347 62.2058 19.9285 62.2968C19.9275 62.4329 19.9264 62.57 19.9253 62.706C19.4337 62.6096 18.942 62.5121 18.4492 62.4157C18.4492 62.2851 18.4492 62.1544 18.4492 62.0237Z" fill="#D8D8D6"/>
<path d="M16.9004 61.6819C17.3289 61.7729 17.7563 61.864 18.1848 61.955C18.1837 62.0911 18.1826 62.2282 18.1815 62.3642C17.7541 62.2678 17.3278 62.1703 16.9004 62.0739C16.9004 61.9433 16.9004 61.8126 16.9004 61.6819Z" fill="#D8D8D6"/>
<path d="M16.9025 57.0286C16.9015 57.6574 16.9015 58.2862 16.9004 58.9149C17.3289 59.006 17.7563 59.0971 18.1848 59.1881" stroke="#9D9DA0" stroke-miterlimit="10"/>
<path d="M18.6445 57.4712C18.6445 58.0625 18.6445 58.6527 18.6445 59.244C19.073 59.3351 19.5004 59.4261 19.9289 59.5172" stroke="#9D9DA0" stroke-miterlimit="10"/>
<path d="M16.9004 59.3081C16.9004 60.0997 16.9004 60.8903 16.9004 61.6819C17.3289 61.7729 17.7563 61.864 18.1848 61.955" stroke="#9D9DA0" stroke-miterlimit="10"/>
<path d="M18.6445 59.698C18.6445 60.4896 18.6445 61.2802 18.6445 62.0718C19.073 62.1628 19.5004 62.2539 19.9289 62.3449" stroke="#9D9DA0" stroke-miterlimit="10"/>
<path d="M16.9008 62.074C16.8997 62.8227 16.8976 63.5704 16.8965 64.3192C17.3153 64.4124 17.7342 64.5067 18.153 64.5999" stroke="#9D9DA0" stroke-miterlimit="10"/>
<path d="M18.5814 62.4265C18.5804 63.1753 18.5782 63.923 18.5771 64.6718C18.996 64.7649 19.4148 64.8592 19.8337 64.9524" stroke="#9D9DA0" stroke-miterlimit="10"/>
<path d="M38.8689 69.9356C37.6949 69.6656 36.5208 69.3957 35.3468 69.1257C35.1732 69.2243 34.9997 69.3239 34.8262 69.4225C36.1737 69.732 37.5213 70.0405 38.87 70.3501C38.8689 70.2119 38.8689 70.0737 38.8689 69.9356Z" fill="#292C3A"/>
<path d="M35.4241 61.4839C35.243 61.4271 35.0609 61.3693 34.8799 61.3125C34.8874 64.0162 34.8949 66.7199 34.9034 69.4226C35.0791 69.324 35.2537 69.2244 35.4294 69.1258C35.4262 66.5796 35.4251 64.0312 35.4241 61.4839Z" fill="#565D75"/>
<path d="M34.6879 69.2598C36.2048 69.6304 37.7216 70.001 39.2384 70.3717C38.7724 70.7112 38.3065 71.0508 37.8405 71.3904C36.2755 70.9844 34.7104 70.5773 33.1465 70.1714C33.6607 69.8682 34.1748 69.564 34.6879 69.2598Z" fill="#442C16"/>
<path d="M39.2387 70.3716C39.2323 70.5794 39.2248 70.7861 39.2184 70.994C38.7696 71.3228 38.3218 71.6527 37.873 71.9816C37.8622 71.7845 37.8515 71.5874 37.8408 71.3903C38.3079 71.0507 38.7728 70.7112 39.2387 70.3716Z" fill="#0F0903"/>
<path d="M37.8726 71.9817C37.8619 71.7846 37.8512 71.5875 37.8405 71.3904C36.2755 70.9844 34.7104 70.5774 33.1465 70.1714C33.1508 70.3567 33.1551 70.542 33.1583 70.7273C34.7308 71.1462 36.3012 71.5639 37.8726 71.9817Z" fill="#30200F"/>
<path d="M35.7673 61.5588C35.7651 63.9894 35.763 66.4189 35.7598 68.8494C36.7956 69.0808 37.8315 69.3122 38.8673 69.5436C38.8673 67.1452 38.8673 64.7457 38.8673 62.3472C37.8347 62.0837 36.801 61.8213 35.7673 61.5588Z" fill="#68A1B5"/>
<path d="M35.3418 61.4839C35.3429 64.0312 35.345 66.5785 35.3461 69.1258C36.5201 69.3958 37.6941 69.6657 38.8682 69.9357C38.8682 69.805 38.8682 69.6743 38.8682 69.5425C37.8323 69.3112 36.7965 69.0798 35.7606 68.8484C35.7628 66.4178 35.7649 63.9884 35.7681 61.5578C35.6257 61.5342 35.4832 61.5096 35.3418 61.4839Z" fill="#D8D8D6"/>
<path d="M37.0615 61.8877C37.0465 64.3022 37.0326 66.7156 37.0176 69.1301C37.1547 69.1612 37.2918 69.1912 37.43 69.2222C37.4568 66.8152 37.4836 64.4082 37.5103 62.0012C37.3604 61.9638 37.2104 61.9252 37.0615 61.8877Z" fill="#D8D8D6"/>
<path d="M35.7664 63.4451C36.1949 63.5361 36.6223 63.6272 37.0508 63.7182C37.0497 63.8543 37.0486 63.9914 37.0476 64.1274C36.6202 64.031 36.1938 63.9335 35.7664 63.8371C35.7654 63.7075 35.7654 63.5758 35.7664 63.4451Z" fill="#D8D8D6"/>
<path d="M37.3154 63.7869C37.8082 63.8779 38.3009 63.969 38.7948 64.06C38.7937 64.1961 38.7926 64.3332 38.7915 64.4692C38.2999 64.3728 37.8082 64.2753 37.3154 64.1789C37.3154 64.0493 37.3154 63.9176 37.3154 63.7869Z" fill="#D8D8D6"/>
<path d="M37.3154 66.5527C37.8082 66.6438 38.3009 66.7348 38.7948 66.8259C38.7937 66.9619 38.7926 67.099 38.7915 67.2351C38.2999 67.1387 37.8082 67.0412 37.3154 66.9448C37.3154 66.8152 37.3154 66.6834 37.3154 66.5527Z" fill="#D8D8D6"/>
<path d="M35.7664 66.2109C36.1949 66.302 36.6223 66.393 37.0508 66.4841C37.0497 66.6201 37.0486 66.7572 37.0476 66.8933C36.6202 66.7969 36.1938 66.6994 35.7664 66.603C35.7654 66.4734 35.7654 66.3427 35.7664 66.2109Z" fill="#D8D8D6"/>
<path d="M53.584 42.9939C59.2796 43.9601 64.9741 44.9274 70.6697 45.8936C70.5775 56.9763 70.4854 68.059 70.3922 79.1416C65.0276 77.8155 59.6631 76.4883 54.2974 75.1621C54.0596 64.4394 53.8218 53.7166 53.584 42.9939Z" fill="#C1C1C1"/>
<path d="M35.7678 61.5588C35.7667 62.1876 35.7667 62.8164 35.7656 63.4452C36.1941 63.5363 36.6215 63.6273 37.05 63.7184" stroke="#9D9DA0" stroke-miterlimit="10"/>
<path d="M37.5088 62.0012C37.5088 62.5925 37.5088 63.1828 37.5088 63.7741C37.9373 63.8651 38.3647 63.9562 38.7932 64.0472" stroke="#9D9DA0" stroke-miterlimit="10"/>
<path d="M35.7656 63.8384C35.7656 64.63 35.7656 65.4205 35.7656 66.2122C36.1941 66.3032 36.6215 66.3943 37.05 66.4853" stroke="#9D9DA0" stroke-miterlimit="10"/>
<path d="M37.5088 64.2271C37.5088 65.0187 37.5088 65.8092 37.5088 66.6008C37.9373 66.6919 38.3647 66.7829 38.7932 66.874" stroke="#9D9DA0" stroke-miterlimit="10"/>
<path d="M35.765 66.6042C35.764 67.353 35.7618 68.1007 35.7607 68.8495C36.1796 68.9427 36.5984 69.0369 37.0173 69.1301" stroke="#9D9DA0" stroke-miterlimit="10"/>
<path d="M37.4457 66.9565C37.4446 67.7053 37.4425 68.453 37.4414 69.2018C37.8602 69.295 38.2791 69.3892 38.6979 69.4824" stroke="#9D9DA0" stroke-miterlimit="10"/>
<path d="M63.4374 58.4715C61.7813 58.0912 60.1263 57.7099 58.4702 57.3296C58.2249 57.4688 57.9807 57.6081 57.7354 57.7474C59.6357 58.1833 61.5371 58.6193 63.4374 59.0553C63.4374 58.8614 63.4374 58.6664 63.4374 58.4715Z" fill="#292C3A"/>
<path d="M58.5776 46.5524C58.3216 46.4721 58.0656 46.3906 57.8096 46.3103C57.8203 50.1227 57.831 53.9351 57.8417 57.7486C58.0892 57.6094 58.3366 57.4701 58.5841 57.3309C58.5819 53.737 58.5798 50.1452 58.5776 46.5524Z" fill="#565D75"/>
<path d="M57.5319 57.5269C59.6711 58.0496 61.8102 58.5723 63.9494 59.0951C63.2928 59.5739 62.6351 60.0528 61.9784 60.5316C59.7718 59.9585 57.5651 59.3854 55.3584 58.8123C56.0836 58.3838 56.8077 57.9553 57.5319 57.5269Z" fill="#442C16"/>
<path d="M63.9495 59.095C63.9399 59.3874 63.9302 59.6798 63.9206 59.9734C63.2886 60.4372 62.6555 60.9021 62.0235 61.3659C62.0085 61.0874 61.9935 60.81 61.9785 60.5315C62.6362 60.0526 63.2929 59.5738 63.9495 59.095Z" fill="#0F0903"/>
<path d="M62.0234 61.3648C62.0084 61.0863 61.9934 60.8088 61.9784 60.5303C59.7718 59.9572 57.5651 59.3841 55.3584 58.811C55.3638 59.0724 55.3702 59.3338 55.3755 59.5962C57.5919 60.1865 59.8082 60.7756 62.0234 61.3648Z" fill="#30200F"/>
<path d="M59.0643 46.6572C59.0611 50.084 59.0579 53.5118 59.0547 56.9386C60.5158 57.2653 61.9769 57.591 63.4381 57.9177C63.4381 54.5348 63.4381 51.152 63.4381 47.7681C61.9801 47.3974 60.5222 47.0279 59.0643 46.6572Z" fill="#68A1B5"/>
<path d="M58.4639 46.5522C58.466 50.1451 58.4682 53.7368 58.4703 57.3296C60.1264 57.7099 61.7814 58.0913 63.4375 58.4715C63.4375 58.2873 63.4375 58.102 63.4375 57.9177C61.9763 57.591 60.5152 57.2654 59.0541 56.9387C59.0573 53.5119 59.0605 50.084 59.0637 46.6572C58.8634 46.6219 58.6631 46.5876 58.4639 46.5522Z" fill="#D8D8D6"/>
<path d="M60.8883 47.1211C60.8679 50.5254 60.8476 53.9307 60.8262 57.335C61.0201 57.3778 61.2139 57.4218 61.4068 57.4646C61.4443 54.07 61.4817 50.6764 61.5203 47.2818C61.3104 47.2282 61.0993 47.1747 60.8883 47.1211Z" fill="#D8D8D6"/>
<path d="M59.0616 49.3181C59.6647 49.4467 60.2689 49.5752 60.872 49.7037C60.8709 49.8966 60.8687 50.0894 60.8677 50.2811C60.2656 50.144 59.6626 50.008 59.0605 49.8709C59.0605 49.6866 59.0605 49.5024 59.0616 49.3181Z" fill="#D8D8D6"/>
<path d="M61.2462 49.8C61.9414 49.9286 62.6366 50.0571 63.3318 50.1857C63.3297 50.3785 63.3286 50.5713 63.3265 50.7631C62.6323 50.626 61.9393 50.4899 61.2451 50.3528C61.2462 50.1686 61.2462 49.9843 61.2462 49.8Z" fill="#D8D8D6"/>
<path d="M61.2462 53.7004C61.9414 53.829 62.6366 53.9575 63.3318 54.0861C63.3297 54.2789 63.3286 54.4717 63.3265 54.6634C62.6323 54.5263 61.9393 54.3903 61.2451 54.2532C61.2462 54.07 61.2462 53.8847 61.2462 53.7004Z" fill="#D8D8D6"/>
<path d="M59.0616 53.2185C59.6647 53.3471 60.2689 53.4756 60.872 53.6041C60.8709 53.797 60.8687 53.9898 60.8677 54.1815C60.2656 54.0444 59.6626 53.9084 59.0605 53.7712C59.0605 53.5881 59.0605 53.4038 59.0616 53.2185Z" fill="#D8D8D6"/>
<path d="M59.0637 46.6572C59.0626 47.5442 59.0615 48.4311 59.0615 49.3181C59.6646 49.4466 60.2688 49.5752 60.8719 49.7037" stroke="#9D9DA0" stroke-miterlimit="10"/>
<path d="M61.5205 47.2817C61.5205 48.1151 61.5205 48.9485 61.5205 49.7819C62.1236 49.9104 62.7278 50.039 63.3308 50.1675" stroke="#9D9DA0" stroke-miterlimit="10"/>
<path d="M59.0605 49.8721C59.0605 50.9883 59.0605 52.1034 59.0616 53.2196C59.6647 53.3481 60.2689 53.4767 60.872 53.6052" stroke="#9D9DA0" stroke-miterlimit="10"/>
<path d="M61.5205 50.4204C61.5205 51.5366 61.5205 52.6517 61.5216 53.768C62.1247 53.8965 62.7288 54.025 63.3319 54.1536" stroke="#9D9DA0" stroke-miterlimit="10"/>
<path d="M8.89771 68.1789C8.89771 68.1789 7.85865 69.4643 7.7933 69.5393C8.00861 70.4841 8.89771 69.9164 8.89771 69.9164L10.0535 68.407L10.0792 37.7192L7.92292 34.5002H6.38574L8.97698 38.3384L8.89771 68.1789Z" fill="#6A6A6B"/>
<path d="M59.0611 53.7722C59.059 54.8274 59.0568 55.8836 59.0547 56.9387C59.646 57.0704 60.2362 57.2022 60.8275 57.334" stroke="#9D9DA0" stroke-miterlimit="10"/>
<path d="M61.4312 54.2693C61.4291 55.3244 61.4269 56.3806 61.4248 57.4358C62.0161 57.5676 62.6063 57.6993 63.1977 57.8311" stroke="#9D9DA0" stroke-miterlimit="10"/>
<path opacity="0.39" d="M48.9316 42.3169L53.5839 42.9939C53.8217 53.7166 54.0595 64.4394 54.2984 75.1621C52.5298 76.0469 50.7612 76.9307 48.9927 77.8155C48.9713 65.983 48.952 54.1505 48.9316 42.3169Z" fill="#6E7374"/>
<path opacity="0.23" d="M9.88779 37.4526L11.2836 38.1928V47.1202L22.6137 49.4425V44.9478L30.4592 45.929L40.9473 48.6788L48.5732 50.2813L53.926 56.6303L58.469 57.3298L67.3964 59.1358C68.4944 57.3127 69.5848 55.468 70.6678 53.6009C78.2648 40.5012 84.7723 27.5279 90.3576 14.8491C83.7943 25.1969 77.2311 35.5458 70.6678 45.8936C50.4071 42.4551 30.1474 39.0165 9.88672 35.578V37.4526H9.88779Z" fill="#6E7374"/>
<path d="M5.21777 52.8295C16.5982 55.3339 27.9798 57.8384 39.3602 60.3418C39.3195 57.8502 39.2788 55.3596 39.2381 52.868C27.9262 50.7449 16.6143 48.6207 5.30133 46.4976C5.27348 48.6089 5.24562 50.7192 5.21777 52.8295Z" fill="#59391E"/>
<path d="M39.3604 60.343C41.8102 59.5267 44.2611 58.7094 46.711 57.8931C46.6703 55.77 46.6296 53.6458 46.5889 51.5227C44.139 51.9715 41.6881 52.4214 39.2383 52.8703C39.2779 55.3608 39.3197 57.8514 39.3604 60.343Z" fill="#2D221B"/>
<path d="M5.30176 46.4988C6.87 46.2524 8.43717 46.006 10.0054 45.7585C10.03 46.3317 10.0547 46.9048 10.0804 47.4789C8.48644 47.1522 6.89464 46.8255 5.30176 46.4988Z" fill="#2D221B"/>
<path d="M24.2308 50.0519C24.1709 47.5989 24.1098 45.1469 24.0498 42.6938C25.7659 43.0366 27.4819 43.3805 29.198 43.7233C29.1541 46.1356 29.1112 48.5469 29.0673 50.9592C27.4552 50.6572 25.843 50.3551 24.2308 50.0519Z" fill="#1C120B"/>
<path opacity="0.23" d="M25.5812 47.5025C25.5544 46.4356 25.5287 45.3687 25.502 44.3018C26.2486 44.4507 26.9952 44.6006 27.7418 44.7495C27.7226 45.7993 27.7043 46.848 27.6851 47.8977C26.9845 47.766 26.2829 47.6342 25.5812 47.5025Z" fill="#6E7374"/>
<path d="M28.1263 49.0623C28.2292 49.0676 28.332 49.074 28.4348 49.0794C28.3963 49.5722 28.3577 50.0649 28.3192 50.5577C28.2163 50.5588 28.1146 50.5598 28.0117 50.5609C28.0514 50.0606 28.0888 49.5614 28.1263 49.0623Z" fill="#B29400"/>
<path d="M101.433 23.6489C100.498 23.8439 99.5631 24.0399 98.6279 24.2349C98.6311 26.5026 98.6344 28.7714 98.6376 31.0392C99.5695 30.811 100.501 30.5828 101.433 30.3547C101.433 28.1191 101.433 25.8835 101.433 23.6489Z" fill="#68A1B5"/>
<path d="M98.641 30.5764C99.4005 30.3975 100.16 30.2186 100.919 30.0408C101.091 30.1457 101.262 30.2497 101.433 30.3546C100.501 30.5828 99.5687 30.811 98.6367 31.0391C98.6389 30.8849 98.6399 30.7306 98.641 30.5764Z" fill="#292C3A"/>
<path d="M100.919 23.77C101.09 23.7293 101.262 23.6896 101.433 23.6489C101.433 25.8835 101.433 28.1191 101.433 30.3536C101.262 30.2486 101.09 30.1447 100.92 30.0397C100.919 27.9498 100.919 25.8599 100.919 23.77Z" fill="#565D75"/>
<path d="M100.919 23.77C100.919 25.8599 100.919 27.9498 100.92 30.0408C100.165 30.2133 99.4111 30.3857 98.6559 30.5582C98.6495 30.4597 98.6441 30.36 98.6377 30.2615C99.2965 30.1147 99.9553 29.968 100.614 29.8202C100.592 27.8267 100.57 25.8332 100.548 23.8396C100.671 23.8161 100.795 23.7925 100.919 23.77Z" fill="#D8D8D6"/>
<path d="M87.8343 25.2891C86.7974 25.5054 85.7605 25.7218 84.7246 25.9382C84.7278 28.4523 84.7321 30.9664 84.7353 33.4805C85.768 33.2277 86.8017 32.9749 87.8343 32.7211C87.8343 30.2434 87.8343 27.7657 87.8343 25.2891Z" fill="#68A1B5"/>
<path d="M84.7546 32.9459C85.5945 32.752 86.4343 32.5581 87.2741 32.3643C87.4605 32.4832 87.6469 32.6021 87.8343 32.721C86.8017 32.9738 85.768 33.2266 84.7354 33.4804C84.7418 33.3016 84.7482 33.1237 84.7546 32.9459Z" fill="#292C3A"/>
<path d="M87.2637 25.423C87.4533 25.378 87.644 25.3341 87.8336 25.2891C87.8336 27.7668 87.8336 30.2444 87.8336 32.7211C87.644 32.6054 87.4544 32.4886 87.2647 32.3729C87.2647 30.0559 87.2647 27.7389 87.2637 25.423Z" fill="#565D75"/>
<path d="M87.2635 25.4229C87.2635 27.7399 87.2645 30.0569 87.2645 32.3728C86.4279 32.5635 85.5913 32.7552 84.7547 32.9459C84.7483 32.8366 84.7408 32.7263 84.7344 32.617C85.4649 32.4542 86.1944 32.2914 86.925 32.1286C86.9003 29.9187 86.8757 27.7088 86.8521 25.5C86.9892 25.4732 87.1264 25.4475 87.2635 25.4229Z" fill="#D8D8D6"/>
<path d="M108.14 35.5777C100.309 37.1492 92.4789 38.7217 84.6484 40.2932C84.6774 38.5503 84.7052 36.8064 84.7341 35.0636C92.6503 33.5778 100.567 32.091 108.484 30.6052C108.369 32.2624 108.255 33.9195 108.14 35.5777Z" fill="#59391E"/>
<path d="M84.649 40.2932C82.964 39.8701 81.279 39.447 79.594 39.0238C79.593 37.3892 79.5919 35.7545 79.5908 34.1199C81.3058 34.4337 83.0197 34.7487 84.7347 35.0625C84.7058 36.8065 84.6779 38.5493 84.649 40.2932Z" fill="#2D221B"/>
<path d="M108.484 30.6053C107.387 30.4328 106.289 30.2604 105.192 30.0879C105.175 30.4896 105.158 30.8902 105.14 31.2919C106.255 31.0616 107.369 30.8334 108.484 30.6053Z" fill="#2D221B"/>
<path d="M95.2367 33.0917C95.2795 31.3756 95.3213 29.6584 95.3642 27.9424C94.1634 28.1823 92.9625 28.4223 91.7617 28.6633C91.7917 30.3515 91.8228 32.0397 91.8528 33.7269C92.9807 33.5148 94.1087 33.3038 95.2367 33.0917Z" fill="#1C120B"/>
<path opacity="0.23" d="M94.2908 31.307C94.309 30.5604 94.3272 29.8138 94.3465 29.0671C93.8237 29.1721 93.302 29.276 92.7793 29.381C92.7922 30.1158 92.8061 30.8496 92.8189 31.5845C93.3095 31.4913 93.8002 31.3991 94.2908 31.307Z" fill="#6E7374"/>
<path d="M92.5093 32.3984C92.4375 32.4027 92.3647 32.4059 92.293 32.4102C92.3197 32.7551 92.3465 33.1001 92.3733 33.445C92.445 33.4461 92.5168 33.4461 92.5886 33.4471C92.5629 33.0969 92.5361 32.7476 92.5093 32.3984Z" fill="#B29400"/>
<path d="M80.5107 49.917C80.2611 49.9973 80.0104 50.0777 79.7608 50.1591C79.7351 55.0652 79.7094 59.9702 79.6837 64.8763C77.9997 65.3166 76.3158 65.7569 74.6318 66.1971C74.6318 66.4435 74.6318 66.6899 74.6318 66.9363C76.575 66.3985 78.5193 65.8608 80.4625 65.323" fill="#D8D8D6"/>
<path d="M76.5312 65.7C76.5409 60.7639 76.5495 55.8288 76.5591 50.8927C76.8869 50.8231 77.2157 50.7535 77.5435 50.6838C77.5392 55.6017 77.5349 60.5196 77.5306 65.4375C77.1975 65.5253 76.8644 65.6121 76.5312 65.7Z" fill="#D8D8D6"/>
<path d="M79.7382 54.4385C79.0066 54.5927 78.2739 54.7481 77.5423 54.9023C77.5412 55.2022 77.5401 55.5022 77.5391 55.8021C78.2707 55.6489 79.0013 55.4947 79.7329 55.3415C79.735 55.0405 79.7361 54.7395 79.7382 54.4385Z" fill="#D8D8D6"/>
<path d="M79.7148 59.7795C78.9832 59.9338 78.2505 60.0891 77.5188 60.2434C77.5178 60.5433 77.5167 60.8432 77.5156 61.1432C78.2473 60.99 78.9778 60.8357 79.7094 60.6826C79.7116 60.3826 79.7137 60.0816 79.7148 59.7795Z" fill="#D8D8D6"/>
<path d="M76.665 60.4619C75.9334 60.6162 75.2007 60.7715 74.469 60.9257C74.468 61.2257 74.4669 61.5256 74.4658 61.8256C75.1975 61.6724 75.928 61.5181 76.6596 61.3649C76.6618 61.065 76.6639 60.7629 76.665 60.4619Z" fill="#D8D8D6"/>
<path d="M76.5312 55.0566C75.7996 55.2109 75.0669 55.3662 74.3352 55.5205C74.3342 55.8204 74.3331 56.1203 74.332 56.4203C75.0637 56.2671 75.7942 56.1129 76.5259 55.9597C76.528 55.6597 76.5301 55.3587 76.5312 55.0566Z" fill="#D8D8D6"/>
<path d="M79.6898 50.1396C79.6823 51.5665 79.6748 52.9923 79.6673 54.4191C78.9592 54.5798 78.2501 54.7405 77.542 54.9023" stroke="#9D9DA0" stroke-width="2" stroke-miterlimit="10"/>
<path d="M79.6888 55.425C79.6813 56.8519 79.6738 58.2777 79.6663 59.7045C78.9582 59.8652 78.2491 60.0259 77.541 60.1876" stroke="#9D9DA0" stroke-width="2" stroke-miterlimit="10"/>
<path d="M79.637 60.7092C79.6295 62.1361 79.622 63.5618 79.6145 64.9887C78.9065 65.1494 78.1973 65.31 77.4893 65.4718" stroke="#9D9DA0" stroke-width="2" stroke-miterlimit="10"/>
<path d="M76.4807 61.365C76.4732 62.7918 76.4657 64.2176 76.4582 65.6444C75.8498 65.8287 75.2414 66.0119 74.6318 66.1961" stroke="#9D9DA0" stroke-width="2" stroke-miterlimit="10"/>
<path d="M76.4807 56.0454C76.4797 57.5076 76.4786 58.9709 76.4764 60.433C75.8616 60.5605 75.2467 60.688 74.6318 60.8144" stroke="#9D9DA0" stroke-width="2" stroke-miterlimit="10"/>
<path d="M76.4791 50.9604C76.4716 52.3326 76.4652 53.7048 76.4577 55.077C75.8546 55.2056 75.2515 55.3331 74.6484 55.4616" stroke="#9D9DA0" stroke-width="2" stroke-miterlimit="10"/>
<path d="M98.6328 44.8812L105.705 43.0505V59.4474L98.6328 61.1356V44.8812Z" fill="#68A1B5"/>
<path d="M104.463 58.7651C102.52 59.3029 100.576 59.8406 98.6328 60.3784C98.635 60.7415 98.636 61.1057 98.6382 61.4689C100.994 60.7951 103.349 60.1213 105.705 59.4475C105.29 59.2204 104.877 58.9922 104.463 58.7651Z" fill="#292C3A"/>
<path d="M105.705 59.4474C105.292 59.2203 104.877 58.9932 104.464 58.7651C104.48 53.6297 104.496 48.4944 104.511 43.359C104.908 43.2562 105.307 43.1534 105.704 43.0505C105.705 48.5158 105.705 53.9822 105.705 59.4474Z" fill="#565D75"/>
<path d="M104.511 43.3601C104.261 43.4404 104.01 43.5208 103.761 43.6022C103.735 48.5083 103.709 53.4133 103.684 58.3194C102 58.7597 100.316 59.2 98.6318 59.6402C98.6318 59.8866 98.6318 60.133 98.6318 60.3794C100.575 59.8416 102.519 59.3039 104.462 58.7661" fill="#D8D8D6"/>
<path d="M100.532 59.1433C100.542 54.2072 100.55 49.2722 100.56 44.3361C100.888 44.2665 101.217 44.1968 101.545 44.1272C101.54 49.0451 101.536 53.963 101.532 58.8809C101.199 58.9687 100.865 59.0555 100.532 59.1433Z" fill="#D8D8D6"/>
<path d="M103.738 47.8806C103.007 48.0349 102.274 48.1902 101.542 48.3444C101.541 48.6444 101.54 48.9443 101.539 49.2443C102.271 49.0911 103.001 48.9368 103.733 48.7836C103.736 48.4837 103.737 48.1827 103.738 47.8806Z" fill="#D8D8D6"/>
<path d="M103.716 53.2227C102.984 53.3769 102.251 53.5322 101.52 53.6865C101.519 53.9864 101.518 54.2863 101.517 54.5863C102.248 54.4331 102.979 54.2788 103.71 54.1257C103.713 53.8257 103.714 53.5237 103.716 53.2227Z" fill="#D8D8D6"/>
<path d="M100.666 53.905C99.9344 54.0593 99.2016 54.2146 98.47 54.3689C98.4689 54.6688 98.4679 54.9687 98.4668 55.2687C99.1984 55.1155 99.929 54.9612 100.661 54.8081C100.663 54.5081 100.665 54.206 100.666 53.905Z" fill="#D8D8D6"/>
<path d="M100.532 48.4998C99.8006 48.654 99.0679 48.8093 98.3362 48.9636C98.3352 49.2635 98.3341 49.5634 98.333 49.8634C99.0646 49.7102 99.7952 49.5559 100.527 49.4028C100.529 49.1028 100.531 48.8018 100.532 48.4998Z" fill="#D8D8D6"/>
<path d="M103.69 43.583C103.682 45.0098 103.675 46.4356 103.667 47.8624C102.959 48.0231 102.25 48.1838 101.542 48.3455" stroke="#9D9DA0" stroke-width="2" stroke-miterlimit="10"/>
<path d="M103.69 48.8682C103.682 50.295 103.675 51.7208 103.667 53.1476C102.959 53.3083 102.25 53.469 101.542 53.6307" stroke="#9D9DA0" stroke-width="2" stroke-miterlimit="10"/>
<path d="M103.639 54.1526C103.631 55.5794 103.624 57.0052 103.616 58.432C102.908 58.5927 102.199 58.7534 101.491 58.9152" stroke="#9D9DA0" stroke-width="2" stroke-miterlimit="10"/>
<path d="M100.481 54.8081C100.473 56.2349 100.466 57.6607 100.458 59.0876C99.8498 59.2718 99.2413 59.455 98.6318 59.6392" stroke="#9D9DA0" stroke-width="2" stroke-miterlimit="10"/>
<path d="M100.481 49.4873C100.48 50.9495 100.479 52.4128 100.476 53.875C99.8616 54.0025 99.2467 54.1299 98.6318 54.2563" stroke="#9D9DA0" stroke-width="2" stroke-miterlimit="10"/>
<path d="M100.481 44.4033C100.474 45.7755 100.467 47.1478 100.46 48.52C99.8566 48.6485 99.2535 48.776 98.6504 48.9046" stroke="#9D9DA0" stroke-width="2" stroke-miterlimit="10"/>
<path d="M84.0244 70.5323C88.4206 68.9769 92.8179 67.4226 97.2141 65.8672C100.735 66.6031 104.257 67.339 107.778 68.0749C102.999 69.7739 98.2189 71.4728 93.4403 73.1728C90.3006 72.2933 87.163 71.4128 84.0244 70.5323Z" fill="#6D5745"/>
<path d="M101.695 53.1348C101.715 53.2687 101.734 53.4015 101.752 53.5354C102.126 53.7186 102.501 53.9007 102.876 54.0829C102.871 53.9543 102.866 53.8268 102.862 53.6983C102.473 53.5108 102.084 53.3222 101.695 53.1348Z" fill="#0F0903"/>
<path d="M86.5615 58.2628C86.5744 62.0291 86.5883 65.7965 86.6012 69.5629C89.608 68.5185 92.6159 67.4741 95.6228 66.4296C95.671 62.4972 95.7203 58.5649 95.7685 54.6335C92.6995 55.844 89.6305 57.0534 86.5615 58.2628Z" fill="#1C120B"/>
<path d="M92.4254 58.0999C92.7189 58.5626 93.0113 59.0254 93.3048 59.4881C93.2973 63.5705 93.2898 67.6518 93.2823 71.7341C92.9834 71.7341 92.6846 71.7341 92.3857 71.7341C92.3986 67.189 92.4114 62.645 92.4254 58.0999Z" fill="white"/>
<path d="M92.386 71.7341C92.0646 71.6677 91.7432 71.6023 91.4219 71.5359C91.4294 67.0079 91.4369 62.4789 91.4433 57.9509C91.7839 57.9681 92.1235 57.9841 92.4642 58.0013C92.4384 62.5785 92.4117 67.1558 92.386 71.7341Z" fill="#A0A0A0"/>
<path d="M84.3662 56.0807L90.892 46.3188L100.615 47.6675L94.2566 58.2006L84.3662 56.0807Z" fill="#442C16"/>
<path d="M94.2634 59.079C94.2612 58.7866 94.258 58.4931 94.2559 58.2006C96.3758 54.6892 98.4946 51.1789 100.615 47.6675C102.342 49.9888 104.071 52.3101 105.799 54.6324C105.808 54.911 105.815 55.1895 105.824 55.468C104.115 53.211 102.406 50.9539 100.697 48.6969C98.5525 52.1569 96.4079 55.6179 94.2634 59.079Z" fill="#0F0903"/>
<path d="M84.4067 56.9482C84.4046 57.2257 84.4035 57.5021 84.4014 57.7795C87.6664 58.5122 90.9314 59.2438 94.1964 59.9765C94.2189 59.6777 94.2414 59.3788 94.2639 59.0799C90.9785 58.3687 87.6932 57.6584 84.4067 56.9482Z" fill="#C1C1C1"/>
<path d="M94.2638 59.079C94.2413 59.3778 94.2188 59.6767 94.1963 59.9756C96.3848 56.4802 98.5722 52.986 100.761 49.4906C102.602 51.9469 104.443 54.4032 106.285 56.8594C106.32 56.6291 106.357 56.3977 106.392 56.1674C104.493 53.6769 102.595 51.1863 100.695 48.6958C98.5529 52.1569 96.4083 55.6179 94.2638 59.079Z" fill="white"/>
<path d="M105.932 56.357C102.975 56.0368 100.019 55.7154 97.0635 55.3951C98.2975 53.4337 99.5305 51.4724 100.764 49.511C102.487 51.7926 104.209 54.0743 105.932 56.357Z" fill="#C1C1C1"/>
<path d="M102.984 68.3813C102.662 68.3149 102.341 68.2496 102.02 68.1832C102.027 63.6552 102.035 59.1262 102.041 54.5982C102.349 54.5971 102.658 54.596 102.968 54.595C102.973 59.1894 102.978 63.7848 102.984 68.3813Z" fill="#A0A0A0"/>
<path d="M103.023 54.7471C103.317 55.2098 103.609 55.6726 103.902 56.1353C103.895 60.2177 103.887 64.299 103.88 68.3813C103.581 68.3813 103.282 68.3813 102.983 68.3813C102.996 63.8362 103.01 59.2911 103.023 54.7471Z" fill="white"/>
<path d="M84.3662 56.0806C84.3801 56.3698 84.3941 56.659 84.4069 56.9472C87.6923 57.6574 90.9787 58.3676 94.2641 59.0778C94.262 58.7854 94.2588 58.4918 94.2566 58.1994C90.9595 57.4935 87.6634 56.7876 84.3662 56.0806Z" fill="#30200F"/>
<path d="M88.2881 58.6504C88.2902 60.0044 88.2924 61.3584 88.2956 62.7124C89.3432 62.5121 90.3897 62.3107 91.4373 62.1104C91.4384 61.1934 91.4405 60.2754 91.4416 59.3585C90.3897 59.1217 89.3389 58.8861 88.2881 58.6504Z" fill="#442C16"/>
<path d="M94.688 59.1711C94.6837 59.8899 94.6805 60.6098 94.6762 61.3285C94.2177 61.4699 93.7593 61.6113 93.3008 61.7527C93.3019 61.0939 93.3029 60.4341 93.304 59.7753C93.6018 59.8417 93.8996 59.9092 94.1974 59.9756C94.3602 59.7078 94.5241 59.4389 94.688 59.1711Z" fill="#442C16"/>
<path d="M94.4678 62.7424C94.5846 62.7092 94.7013 62.676 94.8181 62.6428L94.8471 64.9277L94.4892 65.052C94.4817 64.2818 94.4753 63.5116 94.4678 62.7424Z" fill="#B29400"/>
<path d="M82.1035 72.5387C82.7591 72.3298 83.4147 72.1198 84.0702 71.9109C86.6336 72.2719 89.7594 72.484 93.2943 72.2323C99.4441 71.7953 104.392 70.1328 107.759 68.6716C109.4 68.9908 111.04 69.3101 112.681 69.6293C106.805 72.0545 100.929 74.4786 95.0532 76.9038C90.7374 75.4491 86.4204 73.9944 82.1035 72.5387Z" fill="#6D5745"/>
<path d="M95.0527 76.9037C95.0302 77.405 95.0078 77.9053 94.9863 78.4066C100.869 75.9385 106.753 73.4705 112.637 71.0014C112.652 70.5215 112.667 70.0426 112.682 69.5627C106.805 72.0104 100.928 74.4571 95.0527 76.9037Z" fill="#4F4034"/>
<path d="M94.9868 76.8545C94.9857 77.3718 94.9846 77.8892 94.9836 78.4077C90.717 76.9541 86.4514 75.5005 82.1848 74.0468C82.1581 73.5444 82.1313 73.042 82.1045 72.5386C86.3979 73.9772 90.6923 75.4158 94.9868 76.8545Z" fill="#4F4034"/>
<path d="M93.4393 73.174C93.4382 73.6913 93.4371 74.2087 93.4361 74.7272C90.3146 73.7888 87.1931 72.8505 84.0706 71.9121C84.0545 71.4525 84.0395 70.993 84.0234 70.5334C87.1631 71.4129 90.3007 72.2934 93.4393 73.174Z" fill="#4F4034"/>
<path d="M93.4388 73.1739C93.4377 73.6913 93.4366 74.2087 93.4355 74.7272C98.2013 72.9897 102.967 71.2522 107.733 69.5158C107.748 69.0359 107.763 68.557 107.778 68.0771C102.998 69.7761 98.2185 71.475 93.4388 73.1739Z" fill="#4F4034"/>
<path d="M115 38.6383C108.679 27.8031 102.356 16.9679 96.0353 6.13379C88.5219 19.3674 81.0095 32.6 73.4961 45.8336C87.3307 43.4352 101.165 41.0368 115 38.6383Z" fill="#754444"/>
<path d="M96.0344 6.1337C71.6967 4.08878 47.3589 2.04493 23.0212 0C15.3471 11.8046 7.67409 23.6093 0 35.4139C24.3506 39.1471 48.7022 42.8802 73.0528 46.6134C80.714 33.1205 88.3742 19.6266 96.0344 6.1337Z" fill="#541515"/>
<path d="M0.377063 34.8333C0.251733 35.0271 0.125331 35.22 0 35.4138C0.00749842 35.7095 0.0149968 36.0051 0.021424 36.3008C24.3549 40.1507 48.6872 43.9995 73.0206 47.8494C73.0314 47.4381 73.0421 47.0257 73.0528 46.6143C73.2006 46.354 73.3484 46.0937 73.4963 45.8334C49.1232 42.1667 24.7501 38.5 0.377063 34.8333Z" fill="#C1C1C1"/>
<path d="M68.9104 79.224C68.9104 79.224 67.8713 80.5094 67.806 80.5844C68.0213 81.5292 68.9104 80.9615 68.9104 80.9615L70.0662 79.4521L70.0919 48.7644L67.9356 45.5454H66.3984L68.9897 49.3846L68.9104 79.224Z" fill="#6A6A6B"/>
</g>
<defs>
<clipPath id="clip0_98_1671">
<rect width="115" height="81.1297" fill="white"/>
</clipPath>
</defs>
</svg>
