<svg width="122" height="69" viewBox="0 0 122 69" fill="none" xmlns="http://www.w3.org/2000/svg">
<path d="M6.78516 19.0271C6.92228 31.0893 7.0606 43.1504 7.19773 55.2126C21.5698 58.9073 35.9407 62.6019 50.3128 66.2966C52.2815 65.3064 54.2502 64.3174 56.2188 63.3272C62.1904 64.8113 68.162 66.2966 74.1348 67.7807C74.2373 55.378 74.3399 42.9753 74.4436 30.5727L6.78516 19.0271Z" fill="#D8D8D6"/>
<path d="M14.168 23.5C15.2304 23.723 16.294 23.946 17.3565 24.1689C17.3529 26.7607 17.3493 29.3513 17.3457 31.9431C16.2869 31.6817 15.2268 31.4216 14.168 31.1603C14.168 28.608 14.168 26.0534 14.168 23.5Z" fill="#68A1B5"/>
<path d="M73.9482 30.3821L116.49 17.8679C116.382 28.4029 116.275 38.9367 116.167 49.4716C102.156 55.5747 88.145 61.6777 74.1343 67.7796C74.0723 55.3146 74.0102 42.8483 73.9482 30.3821Z" fill="#D8D8D6"/>
<path d="M17.3422 31.4143C16.4789 31.2105 15.6156 31.0056 14.7522 30.8018C14.5579 30.9216 14.3635 31.0403 14.168 31.1602C15.2268 31.4215 16.2869 31.6817 17.3457 31.943C17.3445 31.7668 17.3434 31.5906 17.3422 31.4143Z" fill="#292C3A"/>
<path d="M14.7522 23.6379C14.5579 23.5923 14.3623 23.5456 14.168 23.5C14.168 26.0534 14.168 28.6068 14.168 31.1615C14.3623 31.0416 14.5567 30.9229 14.7522 30.803C14.7522 28.415 14.7522 26.0271 14.7522 23.6379Z" fill="#565D75"/>
<path d="M18.0451 52.4087C16.7382 52.1066 15.4313 51.8045 14.1244 51.5024C13.9313 51.6127 13.7381 51.7242 13.5449 51.8345C15.045 52.181 16.545 52.5262 18.0463 52.8727C18.0451 52.718 18.0451 52.5634 18.0451 52.4087Z" fill="#292C3A"/>
<path d="M14.2102 42.9504C14.0087 42.8868 13.806 42.8221 13.6045 42.7585C13.6128 45.7843 13.6212 48.81 13.6307 51.8346C13.8263 51.7243 14.0206 51.6128 14.2162 51.5025C14.2138 48.6518 14.2114 45.8011 14.2102 42.9504Z" fill="#565D75"/>
<path d="M13.3917 51.6523C15.0801 52.0671 16.7686 52.4819 18.457 52.8967C17.9383 53.2767 17.4196 53.6567 16.9009 54.0367C15.1588 53.5824 13.4167 53.1269 11.6758 52.6725C12.2469 52.3321 12.8193 51.9928 13.3917 51.6523Z" fill="#442C16"/>
<path d="M18.4575 52.8967C18.4503 53.1293 18.442 53.3607 18.4348 53.5932C17.9352 53.9613 17.4368 54.3305 16.9371 54.6985C16.9252 54.4779 16.9133 54.2574 16.9014 54.0368C17.4201 53.6568 17.9388 53.2767 18.4575 52.8967Z" fill="#0F0903"/>
<path d="M16.9367 54.6986C16.9248 54.478 16.9128 54.2574 16.9009 54.0368C15.1588 53.5825 13.4167 53.1269 11.6758 52.6726C11.6806 52.88 11.6853 53.0874 11.6889 53.2948C13.4382 53.7635 15.1874 54.231 16.9367 54.6986Z" fill="#30200F"/>
<path d="M14.5943 43.0342C14.5919 45.7542 14.5895 48.4731 14.5859 51.1931C15.739 51.4521 16.8921 51.711 18.0451 51.9699C18.0451 49.2859 18.0451 46.6006 18.0451 43.9165C16.8944 43.6216 15.7438 43.3279 14.5943 43.0342Z" fill="#68A1B5"/>
<path d="M78.8555 36.7777L86.7277 34.729V53.0777L78.8555 54.9682V36.7777Z" fill="#68A1B5"/>
<path d="M85.3457 52.3152C83.1827 52.917 81.0185 53.5188 78.8555 54.1206C78.8579 54.527 78.859 54.9345 78.8614 55.3409C81.4835 54.5869 84.1056 53.8329 86.7277 53.0788C86.2663 52.8235 85.806 52.5693 85.3457 52.3152Z" fill="#292C3A"/>
<path d="M86.7277 53.0777C86.2674 52.8235 85.806 52.5694 85.3457 52.314C85.3636 46.567 85.3815 40.82 85.3982 35.073C85.8405 34.958 86.2841 34.8429 86.7265 34.7278C86.7277 40.8452 86.7277 46.9614 86.7277 53.0777Z" fill="#565D75"/>
<path d="M14.1191 42.9502C14.1203 45.8009 14.1227 48.6516 14.1239 51.5024C15.4308 51.8045 16.7377 52.1066 18.0445 52.4087C18.0445 52.2624 18.0445 52.1162 18.0445 51.9687C16.8915 51.7098 15.7384 51.4508 14.5854 51.1919C14.5878 48.4718 14.5901 45.753 14.5937 43.0329C14.4351 43.0065 14.2777 42.9778 14.1191 42.9502Z" fill="#D8D8D6"/>
<path d="M14.7522 23.6377C14.7522 26.0257 14.7522 28.4137 14.751 30.8017C15.6083 30.9983 16.4669 31.1949 17.3242 31.3927C17.3313 31.28 17.3385 31.1661 17.3457 31.0534C16.5968 30.8856 15.848 30.7178 15.0992 30.5499C15.1242 28.2722 15.1492 25.9945 15.1743 23.7168C15.0348 23.6904 14.8929 23.6641 14.7522 23.6377Z" fill="#D8D8D6"/>
<path d="M37.8506 27.7231C38.913 27.9461 39.9767 28.1691 41.0391 28.3921C41.0355 30.9839 41.0319 33.5744 41.0284 36.1662C39.9695 35.9049 38.9094 35.6448 37.8506 35.3834C37.8506 32.83 37.8506 30.2766 37.8506 27.7231Z" fill="#68A1B5"/>
<path d="M41.0238 35.6377C40.1605 35.4339 39.2972 35.2289 38.4339 35.0251C38.2395 35.145 38.0452 35.2637 37.8496 35.3836C38.9085 35.6449 39.9685 35.9051 41.0274 36.1664C41.0274 35.9902 41.025 35.8139 41.0238 35.6377Z" fill="#292C3A"/>
<path d="M38.4349 27.861C38.2405 27.8155 38.0449 27.7687 37.8506 27.7231C37.8506 30.2766 37.8506 32.83 37.8506 35.3846C38.0449 35.2647 38.2393 35.1461 38.4349 35.0262C38.4337 32.637 38.4349 30.249 38.4349 27.861Z" fill="#565D75"/>
<path d="M38.4348 27.8611C38.4348 30.2491 38.4348 32.6371 38.4336 35.0251C39.2909 35.2217 40.1495 35.4183 41.0068 35.6161C41.014 35.5034 41.0211 35.3895 41.0283 35.2768C40.2794 35.109 39.5306 34.9411 38.7818 34.7733C38.8068 32.4956 38.8319 30.2179 38.8569 27.9402C38.7162 27.9138 38.5755 27.8875 38.4348 27.8611Z" fill="#D8D8D6"/>
<path d="M16.0333 43.4021C16.0166 46.1042 16.0011 48.8051 15.9844 51.5072C16.137 51.5419 16.2896 51.5755 16.4435 51.6102C16.4733 48.9166 16.5031 46.2229 16.5329 43.5292C16.3659 43.486 16.2002 43.4441 16.0333 43.4021Z" fill="#D8D8D6"/>
<path d="M14.5918 45.1453C15.0688 45.2472 15.5445 45.3491 16.0215 45.451C16.0203 45.6032 16.0191 45.7566 16.0179 45.9089C15.5421 45.801 15.0676 45.6919 14.5918 45.584C14.5918 45.4378 14.5918 45.2915 14.5918 45.1453Z" fill="#D8D8D6"/>
<path d="M16.3154 45.5276C16.8639 45.6295 17.4124 45.7314 17.9621 45.8333C17.961 45.9855 17.9598 46.139 17.9586 46.2912C17.4113 46.1833 16.8639 46.0742 16.3154 45.9663C16.3154 45.8201 16.3154 45.6738 16.3154 45.5276Z" fill="#D8D8D6"/>
<path d="M16.3154 48.623C16.8639 48.7249 17.4124 48.8268 17.9621 48.9287C17.961 49.081 17.9598 49.2344 17.9586 49.3867C17.4113 49.2788 16.8639 49.1697 16.3154 49.0618C16.3154 48.9156 16.3154 48.7693 16.3154 48.623Z" fill="#D8D8D6"/>
<path d="M14.5918 48.2405C15.0688 48.3424 15.5445 48.4443 16.0215 48.5462C16.0203 48.6984 16.0191 48.8519 16.0179 49.0041C15.5421 48.8962 15.0676 48.7871 14.5918 48.6792C14.5918 48.533 14.5918 48.3867 14.5918 48.2405Z" fill="#D8D8D6"/>
<path d="M14.5942 43.0342C14.593 43.7379 14.593 44.4416 14.5918 45.1452C15.0688 45.2471 15.5445 45.349 16.0215 45.4509" stroke="#9D9DA0" stroke-miterlimit="10"/>
<path d="M16.5332 43.5293C16.5332 44.191 16.5332 44.8516 16.5332 45.5133C17.0102 45.6152 17.4859 45.7171 17.9629 45.819" stroke="#9D9DA0" stroke-miterlimit="10"/>
<path d="M14.5898 45.5852C14.5898 46.4711 14.5898 47.3558 14.5898 48.2417C15.0668 48.3436 15.5426 48.4455 16.0195 48.5474" stroke="#9D9DA0" stroke-miterlimit="10"/>
<path d="M16.5332 46.0203C16.5332 46.9062 16.5332 47.7909 16.5332 48.6768C17.0102 48.7787 17.4859 48.8806 17.9629 48.9825" stroke="#9D9DA0" stroke-miterlimit="10"/>
<path d="M14.5907 48.6804C14.5895 49.5184 14.5871 50.3551 14.5859 51.1931C15.0522 51.2974 15.5184 51.4029 15.9846 51.5072" stroke="#9D9DA0" stroke-miterlimit="10"/>
<path d="M16.4608 49.075C16.4596 49.9129 16.4572 50.7497 16.4561 51.5876C16.9223 51.6919 17.3885 51.7974 17.8547 51.9017" stroke="#9D9DA0" stroke-miterlimit="10"/>
<path d="M39.0451 57.4783C37.7382 57.1762 36.4313 56.8741 35.1244 56.572C34.9313 56.6823 34.7381 56.7938 34.5449 56.9041C36.045 57.2505 37.545 57.5958 39.0463 57.9422C39.0451 57.7876 39.0451 57.633 39.0451 57.4783Z" fill="#292C3A"/>
<path d="M35.2093 48.0199C35.0077 47.9564 34.805 47.8917 34.6035 47.8281C34.6119 50.8539 34.6202 53.8796 34.6297 56.9042C34.8253 56.7939 35.0197 56.6824 35.2152 56.5721C35.2128 53.7214 35.2116 50.8707 35.2093 48.0199Z" fill="#565D75"/>
<path d="M34.3917 56.7219C36.0801 57.1367 37.7686 57.5515 39.457 57.9663C38.9383 58.3463 38.4196 58.7263 37.9009 59.1063C36.1588 58.652 34.4167 58.1964 32.6758 57.7421C33.2481 57.4016 33.8193 57.0612 34.3917 56.7219Z" fill="#442C16"/>
<path d="M39.4575 57.9663C39.4503 58.1989 39.442 58.4302 39.4348 58.6628C38.9352 59.0308 38.4368 59.4001 37.9371 59.7681C37.9252 59.5475 37.9133 59.3269 37.9014 59.1064C38.4201 58.7263 38.9388 58.3463 39.4575 57.9663Z" fill="#0F0903"/>
<path d="M37.9367 59.7681C37.9248 59.5476 37.9128 59.327 37.9009 59.1064C36.1588 58.6521 34.4167 58.1965 32.6758 57.7422C32.6806 57.9496 32.6853 58.157 32.6889 58.3644C34.4382 58.8319 36.1874 59.3006 37.9367 59.7681Z" fill="#30200F"/>
<path d="M35.5933 48.1038C35.5909 50.8238 35.5885 53.5427 35.585 56.2627C36.738 56.5217 37.8911 56.7806 39.0441 57.0395C39.0441 54.3555 39.0441 51.6702 39.0441 48.9861C37.8947 48.6912 36.744 48.3975 35.5933 48.1038Z" fill="#68A1B5"/>
<path d="M35.1201 48.02C35.1213 50.8707 35.1237 53.7215 35.1249 56.5722C36.4318 56.8743 37.7386 57.1764 39.0455 57.4785C39.0455 57.3322 39.0455 57.1859 39.0455 57.0385C37.8925 56.7796 36.7394 56.5206 35.5863 56.2617C35.5887 53.5416 35.5911 50.8228 35.5947 48.1027C35.4361 48.0752 35.2775 48.0476 35.1201 48.02Z" fill="#D8D8D6"/>
<path d="M37.0342 48.4707C37.0175 51.1728 37.002 53.8737 36.9854 56.5757C37.138 56.6105 37.2906 56.6441 37.4444 56.6788C37.4742 53.9851 37.504 51.2915 37.5339 48.5978C37.3669 48.5558 37.2 48.5139 37.0342 48.4707Z" fill="#D8D8D6"/>
<path d="M35.5908 50.2148C36.0678 50.3167 36.5436 50.4186 37.0205 50.5205C37.0193 50.6728 37.0181 50.8262 37.0169 50.9785C36.5412 50.8706 36.0666 50.7615 35.5908 50.6536C35.5908 50.5073 35.5908 50.3611 35.5908 50.2148Z" fill="#D8D8D6"/>
<path d="M37.316 50.5974C37.8645 50.6993 38.413 50.8012 38.9627 50.9031C38.9615 51.0553 38.9603 51.2088 38.9591 51.361C38.4118 51.2531 37.8645 51.1441 37.316 51.0362C37.3148 50.8899 37.316 50.7437 37.316 50.5974Z" fill="#D8D8D6"/>
<path d="M37.316 53.6926C37.8645 53.7945 38.413 53.8964 38.9627 53.9983C38.9615 54.1506 38.9603 54.304 38.9591 54.4563C38.4118 54.3484 37.8645 54.2393 37.316 54.1314C37.3148 53.9851 37.316 53.8389 37.316 53.6926Z" fill="#D8D8D6"/>
<path d="M35.5908 53.3103C36.0678 53.4122 36.5436 53.5141 37.0205 53.616C37.0193 53.7682 37.0181 53.9217 37.0169 54.0739C36.5412 53.966 36.0666 53.8569 35.5908 53.7491C35.5908 53.6028 35.5908 53.4566 35.5908 53.3103Z" fill="#D8D8D6"/>
<path d="M55.4258 27.3264C61.7658 28.4077 68.1047 29.4902 74.4447 30.5715C74.3421 42.9742 74.2396 55.3769 74.1359 67.7796C68.1643 66.2955 62.1927 64.8102 56.2199 63.3261C55.9552 51.3274 55.6905 39.3275 55.4258 27.3264Z" fill="#C1C1C1"/>
<path d="M35.5932 48.1038C35.592 48.8075 35.592 49.5111 35.5908 50.2148C36.0678 50.3167 36.5436 50.4186 37.0205 50.5205" stroke="#9D9DA0" stroke-miterlimit="10"/>
<path d="M37.5322 48.5989C37.5322 49.2606 37.5322 49.9211 37.5322 50.5829C38.0092 50.6848 38.485 50.7867 38.9619 50.8886" stroke="#9D9DA0" stroke-miterlimit="10"/>
<path d="M35.5908 50.6538C35.5908 51.5397 35.5908 52.4244 35.5908 53.3103C36.0678 53.4122 36.5436 53.5141 37.0205 53.616" stroke="#9D9DA0" stroke-miterlimit="10"/>
<path d="M37.5322 51.0901C37.5322 51.976 37.5322 52.8607 37.5322 53.7466C38.0092 53.8485 38.485 53.9504 38.9619 54.0523" stroke="#9D9DA0" stroke-miterlimit="10"/>
<path d="M35.5907 53.749C35.5895 54.587 35.5871 55.4237 35.5859 56.2617C36.0522 56.366 36.5184 56.4715 36.9846 56.5758" stroke="#9D9DA0" stroke-miterlimit="10"/>
<path d="M37.4618 54.1433C37.4606 54.9813 37.4582 55.8181 37.457 56.656C37.9233 56.7603 38.3895 56.8658 38.8557 56.9701" stroke="#9D9DA0" stroke-miterlimit="10"/>
<path d="M66.3931 44.6478C64.5496 44.2222 62.7074 43.7954 60.8639 43.3699C60.5908 43.5257 60.319 43.6816 60.0459 43.8374C62.1612 44.3253 64.2778 44.8132 66.3931 45.3011C66.3931 45.0841 66.3931 44.866 66.3931 44.6478Z" fill="#292C3A"/>
<path d="M60.9848 31.3088C60.6999 31.2189 60.4149 31.1278 60.1299 31.0378C60.1418 35.3043 60.1537 39.5708 60.1657 43.8385C60.4411 43.6827 60.7165 43.5268 60.992 43.371C60.9896 39.3503 60.9872 35.3295 60.9848 31.3088Z" fill="#565D75"/>
<path d="M59.8208 43.5903C62.202 44.1753 64.5832 44.7604 66.9645 45.3454C66.2335 45.8812 65.5014 46.4171 64.7704 46.9529C62.3141 46.3116 59.8577 45.6702 57.4014 45.0289C58.2086 44.5494 59.0147 44.0698 59.8208 43.5903Z" fill="#442C16"/>
<path d="M66.9645 45.3455C66.9538 45.6727 66.9431 46 66.9323 46.3285C66.2288 46.8476 65.5241 47.3678 64.8206 47.8869C64.8039 47.5752 64.7872 47.2647 64.7705 46.9531C65.5026 46.4172 66.2336 45.8813 66.9645 45.3455Z" fill="#0F0903"/>
<path d="M5.68291 54.3436C5.68291 54.3436 4.52628 55.7821 4.45354 55.866C4.69322 56.9234 5.68291 56.288 5.68291 56.288L6.96952 54.5989L6.99814 20.2559L4.59782 16.6536H2.88672L5.77115 20.95L5.68291 54.3436Z" fill="#6A6A6B"/>
<path d="M64.8205 47.887C64.8038 47.5753 64.7871 47.2648 64.7704 46.9531C62.3141 46.3118 59.8577 45.6704 57.4014 45.0291C57.4073 45.3216 57.4145 45.6141 57.4204 45.9078C59.8875 46.5671 62.3534 47.2276 64.8205 47.887Z" fill="#30200F"/>
<path d="M61.5254 31.4275C61.5218 35.2624 61.5182 39.0986 61.5146 42.9335C63.1411 43.2991 64.7675 43.6635 66.394 44.0292C66.394 40.2434 66.394 36.4576 66.394 32.6706C64.7699 32.2559 63.1482 31.8411 61.5254 31.4275Z" fill="#68A1B5"/>
<path d="M60.8564 31.3088C60.8588 35.3296 60.8612 39.3491 60.8636 43.3699C62.7071 43.7954 64.5493 44.2222 66.3928 44.6478C66.3928 44.4416 66.3928 44.2342 66.3928 44.028C64.7663 43.6624 63.1399 43.2979 61.5135 42.9323C61.517 39.0974 61.5206 35.2612 61.5242 31.4263C61.3024 31.388 61.0794 31.3484 60.8564 31.3088Z" fill="#D8D8D6"/>
<path d="M63.5565 31.9453C63.5338 35.7551 63.5112 39.566 63.4873 43.3758C63.7031 43.4237 63.919 43.4729 64.1336 43.5208C64.1753 39.7219 64.2171 35.9241 64.26 32.1251C64.0251 32.0652 63.7914 32.0053 63.5565 31.9453Z" fill="#D8D8D6"/>
<path d="M61.5227 34.4041C62.194 34.5479 62.8665 34.6918 63.5378 34.8356C63.5366 35.0514 63.5343 35.2672 63.5331 35.4818C62.8629 35.3283 62.1916 35.1761 61.5215 35.0226C61.5227 34.8176 61.5227 34.6114 61.5227 34.4041Z" fill="#D8D8D6"/>
<path d="M63.9543 34.9436C64.7282 35.0875 65.5021 35.2313 66.2759 35.3752C66.2735 35.591 66.2724 35.8067 66.27 36.0213C65.4973 35.8679 64.7258 35.7156 63.9531 35.5622C63.9543 35.3572 63.9543 35.1498 63.9543 34.9436Z" fill="#D8D8D6"/>
<path d="M63.9543 39.3096C64.7282 39.4534 65.5021 39.5973 66.2759 39.7411C66.2735 39.9569 66.2724 40.1727 66.27 40.3873C65.4973 40.2338 64.7258 40.0816 63.9531 39.9281C63.9543 39.722 63.9543 39.5158 63.9543 39.3096Z" fill="#D8D8D6"/>
<path d="M61.5227 38.77C62.194 38.9139 62.8665 39.0577 63.5378 39.2016C63.5366 39.4174 63.5343 39.6331 63.5331 39.8477C62.8629 39.6943 62.1916 39.542 61.5215 39.3886C61.5227 39.1824 61.5227 38.9762 61.5227 38.77Z" fill="#D8D8D6"/>
<path d="M61.5258 31.4275C61.5246 32.4201 61.5234 33.4127 61.5234 34.4053C62.1948 34.5491 62.8673 34.693 63.5386 34.8369" stroke="#9D9DA0" stroke-miterlimit="10"/>
<path d="M64.2598 32.1252C64.2598 33.0579 64.2598 33.9906 64.2598 34.9232C64.9311 35.0671 65.6036 35.2109 66.2749 35.3548" stroke="#9D9DA0" stroke-miterlimit="10"/>
<path d="M61.5225 35.0239C61.5225 36.2731 61.5225 37.521 61.5237 38.7701C62.195 38.914 62.8675 39.0579 63.5388 39.2017" stroke="#9D9DA0" stroke-miterlimit="10"/>
<path d="M64.2598 35.6389C64.2598 36.888 64.2598 38.136 64.261 39.3851C64.9323 39.529 65.6048 39.6728 66.2761 39.8167" stroke="#9D9DA0" stroke-miterlimit="10"/>
<path d="M61.5218 39.3887C61.5194 40.5695 61.517 41.7515 61.5146 42.9323C62.1729 43.0797 62.8299 43.2272 63.4881 43.3746" stroke="#9D9DA0" stroke-miterlimit="10"/>
<path d="M64.1595 39.946C64.1571 41.1269 64.1547 42.3089 64.1523 43.4897C64.8106 43.6371 65.4676 43.7846 66.1258 43.932" stroke="#9D9DA0" stroke-miterlimit="10"/>
<path opacity="0.39" d="M50.2461 26.5701L55.4247 27.3277C55.6894 39.3276 55.9542 51.3275 56.2201 63.3274C54.2514 64.3176 52.2827 65.3066 50.3141 66.2968C50.2914 53.0537 50.2687 39.8119 50.2461 26.5701Z" fill="#6E7374"/>
<path opacity="0.23" d="M6.78516 21.1263L8.33886 21.9547V31.9454L20.951 34.5444V29.5143L29.6842 30.6124L41.359 33.6897L49.8478 35.4831L55.8062 42.5883L60.8632 43.3711L70.8007 45.3923C72.0301 43.3939 73.2464 41.3296 74.4424 39.1981C80.1802 28.9664 84.4514 18.9721 87.653 9.63354C83.2495 16.6129 78.8459 23.5935 74.4424 30.5728C51.8915 27.4236 29.3384 24.2744 6.78516 21.1263Z" fill="#6E7374"/>
<path d="M2.22483 39.2016C14.6807 41.7154 27.1366 44.2293 39.5913 46.7419C39.546 43.9536 39.5007 41.1664 39.4554 38.378C26.8636 36.002 14.2717 33.6248 1.67871 31.2488C1.86115 33.9005 2.04359 36.551 2.22483 39.2016Z" fill="#59391E"/>
<path d="M39.592 46.7419C42.319 45.8285 45.0472 44.9138 47.7743 44.0003C47.729 41.6243 47.6837 39.2471 47.6384 36.8711C44.9113 37.3734 42.1831 37.8769 39.4561 38.3792C39.5014 41.1664 39.5467 43.9547 39.592 46.7419Z" fill="#2D221B"/>
<path d="M1.67969 31.25C3.42537 30.9743 5.16986 30.6986 6.91555 30.4216C6.94298 31.063 6.9704 31.7043 6.99902 32.3469C5.22472 31.9801 3.45161 31.6144 1.67969 31.25Z" fill="#2D221B"/>
<path d="M22.7503 35.2264C22.6836 32.4812 22.6156 29.7372 22.5488 26.9919C24.4591 27.3756 26.3693 27.7604 28.2795 28.144C28.2307 30.8437 28.183 33.5421 28.1341 36.2418C26.3395 35.9038 24.5449 35.5645 22.7503 35.2264Z" fill="#1C120B"/>
<path opacity="0.23" d="M24.2552 32.372C24.2254 31.178 24.1968 29.984 24.167 28.79C24.9981 28.9567 25.8292 29.1245 26.6603 29.2911C26.6389 30.466 26.6186 31.6396 26.5971 32.8144C25.8173 32.6669 25.0363 32.5195 24.2552 32.372Z" fill="#6E7374"/>
<path d="M27.0875 34.1177C27.202 34.1237 27.3165 34.1309 27.431 34.1369C27.388 34.6883 27.3451 35.2397 27.3022 35.7912C27.1877 35.7924 27.0744 35.7936 26.96 35.7948C27.0041 35.2349 27.0458 34.6763 27.0875 34.1177Z" fill="#B29400"/>
<path d="M105.581 13.43C106.426 13.2298 107.272 13.0296 108.117 12.8306C108.308 12.948 108.499 13.0643 108.688 13.1818C107.651 13.4372 106.614 13.6925 105.576 13.9478C105.579 13.7752 105.58 13.6026 105.581 13.43Z" fill="#292C3A"/>
<path d="M93.5504 7.51294C92.3962 7.7551 91.2419 7.99725 90.0889 8.23941C90.0924 11.053 90.0972 13.8665 90.1008 16.6801C91.2503 16.3972 92.4009 16.1143 93.5504 15.8301C93.5504 13.0573 93.5504 10.2857 93.5504 7.51294Z" fill="#68A1B5"/>
<path d="M90.123 16.0819C91.0579 15.8649 91.9927 15.6479 92.9276 15.4309C93.135 15.564 93.3425 15.697 93.5512 15.8301C92.4017 16.113 91.251 16.3959 90.1016 16.68C90.1075 16.4811 90.1159 16.2821 90.123 16.0819Z" fill="#292C3A"/>
<path d="M92.916 7.66279C93.1271 7.61244 93.3393 7.56329 93.5504 7.51294C93.5504 10.2857 93.5504 13.0585 93.5504 15.8301C93.3393 15.7007 93.1283 15.57 92.9172 15.4405C92.9172 12.8488 92.916 10.2558 92.916 7.66279Z" fill="#565D75"/>
<path d="M92.9159 7.6626C92.9159 10.2556 92.9171 12.8486 92.9171 15.4404C91.9858 15.6537 91.0545 15.8683 90.1232 16.0817C90.1161 15.9594 90.1077 15.836 90.1006 15.7137C90.9138 15.5315 91.7258 15.3492 92.5391 15.167C92.5116 12.6939 92.4842 10.2208 92.458 7.74891C92.6106 7.71894 92.7632 7.69137 92.9159 7.6626Z" fill="#D8D8D6"/>
<path d="M90.0056 24.3044C88.1299 23.8309 86.2542 23.3573 84.3786 22.8838C84.3774 21.0545 84.3762 19.2251 84.375 17.3958C86.284 17.747 88.1919 18.0994 90.1009 18.4507C90.0687 20.4023 90.0366 22.354 90.0056 24.3044Z" fill="#2D221B"/>
<path d="M101.791 16.2448C101.839 14.3243 101.885 12.4026 101.933 10.4822C100.596 10.7507 99.2595 11.0192 97.9229 11.289C97.9562 13.1783 97.9908 15.0676 98.0242 16.9556C99.2798 16.7195 100.535 16.4821 101.791 16.2448Z" fill="#1C120B"/>
<path opacity="0.23" d="M100.738 14.2489C100.758 13.4133 100.779 12.5777 100.8 11.7422C100.218 11.8597 99.6376 11.976 99.0557 12.0934C99.07 12.9158 99.0855 13.737 99.0998 14.5593C99.6459 14.4551 100.192 14.352 100.738 14.2489Z" fill="#6E7374"/>
<path d="M98.7555 15.4692C98.6756 15.474 98.5945 15.4776 98.5146 15.4824C98.5445 15.8684 98.5743 16.2544 98.6041 16.6405C98.684 16.6417 98.7639 16.6417 98.8438 16.6429C98.8151 16.252 98.7853 15.8612 98.7555 15.4692Z" fill="#B29400"/>
<path d="M85.3974 35.0742C85.1196 35.1641 84.8406 35.254 84.5628 35.3451C84.5341 40.8356 84.5055 46.3249 84.4769 51.8153C82.6024 52.308 80.728 52.8007 78.8535 53.2934C78.8535 53.5692 78.8535 53.8449 78.8535 54.1206C81.0165 53.5188 83.1808 52.917 85.3438 52.3152" fill="#D8D8D6"/>
<path d="M80.9697 52.7373C80.9805 47.2132 80.99 41.6904 81.0007 36.1664C81.3656 36.0885 81.7317 36.0105 82.0965 35.9326C82.0918 41.4363 82.087 46.9399 82.0822 52.4436C81.7114 52.5431 81.3406 52.6402 80.9697 52.7373Z" fill="#D8D8D6"/>
<path d="M84.5378 40.1343C83.7234 40.3069 82.9078 40.4807 82.0934 40.6534C82.0922 40.989 82.091 41.3247 82.0898 41.6603C82.9043 41.4889 83.7175 41.3163 84.5319 41.1449C84.5343 40.8092 84.5366 40.4711 84.5378 40.1343Z" fill="#D8D8D6"/>
<path d="M84.5135 46.1128C83.699 46.2854 82.8834 46.4592 82.069 46.6319C82.0678 46.9675 82.0666 47.3032 82.0654 47.6389C82.8798 47.4674 83.6931 47.2948 84.5075 47.1234C84.5099 46.7865 84.5111 46.4497 84.5135 46.1128Z" fill="#D8D8D6"/>
<path d="M81.1179 46.8762C80.3035 47.0488 79.4879 47.2227 78.6735 47.3953C78.6723 47.731 78.6711 48.0666 78.6699 48.4023C79.4843 48.2309 80.2976 48.0582 81.112 47.8868C81.1144 47.5499 81.1155 47.2131 81.1179 46.8762Z" fill="#D8D8D6"/>
<path d="M80.9695 40.8271C80.1551 40.9998 79.3395 41.1736 78.5251 41.3462C78.5239 41.6819 78.5227 42.0175 78.5215 42.3532C79.3359 42.1818 80.1491 42.0092 80.9635 41.8377C80.9659 41.5021 80.9683 41.164 80.9695 40.8271Z" fill="#D8D8D6"/>
<path d="M84.4845 35.3247C84.4762 36.9215 84.4678 38.5171 84.4595 40.1139C83.6713 40.2937 82.8819 40.4735 82.0938 40.6545" stroke="#9D9DA0" stroke-width="2" stroke-miterlimit="10"/>
<path d="M84.4845 41.2383C84.4762 42.8351 84.4678 44.4307 84.4595 46.0275C83.6713 46.2073 82.8819 46.3871 82.0938 46.5681" stroke="#9D9DA0" stroke-width="2" stroke-miterlimit="10"/>
<path d="M84.4269 47.1533C84.4186 48.7501 84.4102 50.3457 84.4019 51.9424C83.6137 52.1223 82.8243 52.3021 82.0361 52.4831" stroke="#9D9DA0" stroke-width="2" stroke-miterlimit="10"/>
<path d="M80.9116 47.887C80.9033 49.4838 80.8949 51.0793 80.8866 52.6761C80.2093 52.8823 79.532 53.0873 78.8535 53.2935" stroke="#9D9DA0" stroke-width="2" stroke-miterlimit="10"/>
<path d="M80.9116 41.9326C80.9104 43.569 80.9092 45.2065 80.9068 46.8429C80.2224 46.9855 79.538 47.1282 78.8535 47.2696" stroke="#9D9DA0" stroke-width="2" stroke-miterlimit="10"/>
<path d="M80.9119 36.2419C80.9035 37.7776 80.8964 39.3132 80.888 40.8489C80.2167 40.9928 79.5454 41.1354 78.874 41.2793" stroke="#9D9DA0" stroke-width="2" stroke-miterlimit="10"/>
<path d="M105.572 29.4386L113.445 27.3911V45.7398L105.572 47.6303V29.4386Z" fill="#68A1B5"/>
<path d="M112.063 44.9773C109.9 45.5791 107.735 46.1809 105.572 46.7827C105.575 47.1891 105.576 47.5967 105.578 48.003C108.2 47.249 110.822 46.495 113.445 45.7409C112.983 45.4856 112.523 45.2314 112.063 44.9773Z" fill="#292C3A"/>
<path d="M113.445 45.7398C112.984 45.4856 112.523 45.2315 112.062 44.9762C112.08 39.2292 112.098 33.4821 112.115 27.7351C112.557 27.6201 113.001 27.505 113.443 27.3899C113.445 33.5073 113.445 39.6236 113.445 45.7398Z" fill="#565D75"/>
<path d="M112.115 27.7363C111.837 27.8262 111.558 27.9161 111.281 28.0073C111.252 33.4977 111.223 38.987 111.195 44.4774C109.32 44.9701 107.446 45.4628 105.571 45.9556C105.571 46.2313 105.571 46.507 105.571 46.7827C107.734 46.1809 109.899 45.5791 112.062 44.9773" fill="#D8D8D6"/>
<path d="M107.687 45.3994C107.697 39.8753 107.707 34.3525 107.718 28.8285C108.082 28.7506 108.448 28.6726 108.813 28.5947C108.809 34.0984 108.804 39.602 108.799 45.1057C108.428 45.204 108.057 45.3023 107.687 45.3994Z" fill="#D8D8D6"/>
<path d="M111.256 32.7964C110.441 32.969 109.626 33.1428 108.811 33.3155C108.81 33.6511 108.809 33.9868 108.808 34.3224C109.622 34.151 110.435 33.9784 111.25 33.807C111.252 33.4701 111.254 33.1332 111.256 32.7964Z" fill="#D8D8D6"/>
<path d="M111.23 38.7749C110.416 38.9475 109.6 39.1214 108.786 39.294C108.785 39.6296 108.783 39.9653 108.782 40.301C109.597 40.1295 110.41 39.9569 111.224 39.7855C111.227 39.4486 111.228 39.1118 111.23 38.7749Z" fill="#D8D8D6"/>
<path d="M107.836 39.5374C107.021 39.71 106.206 39.8838 105.391 40.0564C105.39 40.3921 105.389 40.7278 105.388 41.0634C106.202 40.892 107.015 40.7194 107.83 40.5479C107.832 40.2123 107.833 39.8754 107.836 39.5374Z" fill="#D8D8D6"/>
<path d="M107.686 33.4893C106.872 33.6619 106.056 33.8357 105.242 34.0083C105.241 34.344 105.239 34.6797 105.238 35.0153C106.053 34.8439 106.866 34.6713 107.68 34.4998C107.683 34.163 107.685 33.8261 107.686 33.4893Z" fill="#D8D8D6"/>
<path d="M111.201 27.9868C111.193 29.5836 111.185 31.1792 111.176 32.776C110.388 32.9558 109.599 33.1356 108.811 33.3166" stroke="#9D9DA0" stroke-width="2" stroke-miterlimit="10"/>
<path d="M111.201 33.9006C111.193 35.4974 111.185 37.093 111.176 38.6898C110.388 38.8696 109.599 39.0494 108.811 39.2305" stroke="#9D9DA0" stroke-width="2" stroke-miterlimit="10"/>
<path d="M111.145 39.8154C111.136 41.4122 111.128 43.0078 111.12 44.6046C110.331 44.7844 109.542 44.9642 108.754 45.1453" stroke="#9D9DA0" stroke-width="2" stroke-miterlimit="10"/>
<path d="M107.629 40.5491C107.621 42.1459 107.613 43.7415 107.604 45.3382C106.927 45.5444 106.25 45.7494 105.571 45.9556" stroke="#9D9DA0" stroke-width="2" stroke-miterlimit="10"/>
<path d="M107.629 34.5947C107.628 36.2311 107.627 37.8686 107.625 39.505C106.94 39.6476 106.256 39.7903 105.571 39.9317" stroke="#9D9DA0" stroke-width="2" stroke-miterlimit="10"/>
<path d="M107.628 28.9041C107.619 30.4397 107.612 31.9754 107.604 33.511C106.932 33.6549 106.261 33.7975 105.59 33.9414" stroke="#9D9DA0" stroke-width="2" stroke-miterlimit="10"/>
<path d="M89.3096 58.146C94.2032 56.4054 99.098 54.6659 103.992 52.9253C107.911 53.7489 111.832 54.5724 115.751 55.396C110.431 57.2973 105.11 59.1986 99.7908 61.101C96.2959 60.1168 92.8021 59.1314 89.3096 58.146Z" fill="#6D5745"/>
<path d="M108.981 38.6753C109.003 38.8251 109.024 38.9738 109.045 39.1236C109.461 39.3286 109.878 39.5324 110.295 39.7362C110.291 39.5924 110.285 39.4497 110.28 39.3059C109.847 39.0961 109.414 38.8863 108.981 38.6753Z" fill="#0F0903"/>
<path d="M92.1348 44.415C92.1491 48.63 92.1646 52.8461 92.1789 57.0611C95.526 55.8922 98.8743 54.7234 102.221 53.5546C102.275 49.1538 102.33 44.7531 102.384 40.3535C98.9673 41.707 95.551 43.0616 92.1348 44.415Z" fill="#1C120B"/>
<path d="M98.6623 44.2329C98.989 44.7508 99.3145 45.2687 99.6413 45.7865C99.6329 50.3551 99.6246 54.9225 99.6162 59.4911C99.2835 59.4911 98.9508 59.4911 98.6182 59.4911C98.6325 54.4046 98.6468 49.3182 98.6623 44.2329Z" fill="white"/>
<path d="M98.6161 59.4898C98.2584 59.4155 97.9007 59.3423 97.543 59.268C97.5513 54.2007 97.5597 49.1322 97.5668 44.0649C97.946 44.0841 98.324 44.1021 98.7032 44.1213C98.6758 49.2437 98.6459 54.3674 98.6161 59.4898Z" fill="#A0A0A0"/>
<path d="M89.6904 41.9731L96.9546 31.0474L107.778 32.5578L100.7 44.3443L89.6904 41.9731Z" fill="#442C16"/>
<path d="M100.709 45.3274C100.706 45.0001 100.703 44.6716 100.7 44.3444C103.06 40.4147 105.419 36.4863 107.778 32.5566C109.702 35.1544 111.626 37.7522 113.55 40.3512C113.559 40.6629 113.567 40.9746 113.577 41.2862C111.675 38.7604 109.772 36.2345 107.87 33.7087C105.483 37.582 103.096 41.4541 100.709 45.3274Z" fill="#0F0903"/>
<path d="M89.7355 42.9429C89.7331 43.2534 89.7319 43.5626 89.7295 43.8731C93.3639 44.6931 96.9984 45.5119 100.633 46.3319C100.658 45.9974 100.683 45.6629 100.708 45.3285C97.0509 44.5325 93.3926 43.7377 89.7355 42.9429Z" fill="#C1C1C1"/>
<path d="M100.708 45.3274C100.683 45.6619 100.658 45.9963 100.633 46.3308C103.069 42.4191 105.504 38.5087 107.94 34.597C109.99 37.3458 112.039 40.0947 114.089 42.8435C114.128 42.5858 114.169 42.3268 114.208 42.0691C112.094 39.2819 109.981 36.4947 107.867 33.7075C105.482 37.582 103.095 41.4541 100.708 45.3274Z" fill="white"/>
<path d="M113.697 42.2813C110.406 41.9229 107.115 41.5633 103.825 41.2048C105.199 39.0098 106.571 36.8149 107.945 34.6199C109.861 37.1733 111.78 39.7279 113.697 42.2813Z" fill="#C1C1C1"/>
<path d="M110.414 55.7377C110.056 55.6634 109.699 55.5903 109.341 55.516C109.349 50.4487 109.358 45.3802 109.365 40.3129C109.708 40.3117 110.052 40.3105 110.396 40.3093C110.402 45.4521 110.408 50.5949 110.414 55.7377Z" fill="#A0A0A0"/>
<path d="M110.458 40.4795C110.785 40.9974 111.11 41.5152 111.437 42.0331C111.429 46.6017 111.42 51.1691 111.412 55.7377C111.079 55.7377 110.747 55.7377 110.414 55.7377C110.428 50.6512 110.444 45.566 110.458 40.4795Z" fill="white"/>
<path d="M89.6904 41.9731C89.7059 42.2968 89.7214 42.6205 89.7357 42.943C93.3929 43.7378 97.0512 44.5326 100.708 45.3274C100.706 45.0001 100.702 44.6716 100.7 44.3444C97.0297 43.5543 93.3595 42.7631 89.6904 41.9731Z" fill="#30200F"/>
<path d="M94.0566 44.8479C94.059 46.3632 94.0614 47.8785 94.065 49.3937C95.2312 49.1696 96.3961 48.9442 97.5623 48.72C97.5635 47.6938 97.5659 46.6665 97.5671 45.6403C96.3961 45.3754 95.2264 45.1116 94.0566 44.8479Z" fill="#442C16"/>
<path d="M101.179 45.4316C101.174 46.236 101.171 47.0416 101.166 47.846C100.655 48.0042 100.145 48.1625 99.6348 48.3207C99.636 47.5835 99.6371 46.845 99.6383 46.1078C99.9698 46.1821 100.301 46.2576 100.633 46.3319C100.815 46.031 100.998 45.7313 101.179 45.4316Z" fill="#442C16"/>
<path d="M100.936 49.4272C101.066 49.39 101.195 49.3528 101.325 49.3157L101.358 51.8727L100.959 52.0118C100.951 51.1498 100.943 50.2891 100.936 49.4272Z" fill="#B29400"/>
<path d="M87.1719 60.3914C87.9016 60.1576 88.6314 59.9226 89.3611 59.6889C92.2146 60.0929 95.694 60.3302 99.629 60.0485C106.475 59.5594 111.982 57.6989 115.73 56.0637C117.557 56.421 119.382 56.7782 121.209 57.1354C114.669 59.8495 108.127 62.5624 101.587 65.2764C96.7815 63.6473 91.9773 62.0193 87.1719 60.3914Z" fill="#6D5745"/>
<path d="M101.587 65.2764C101.562 65.8374 101.537 66.3972 101.513 66.9583C108.061 64.1962 114.611 61.4342 121.16 58.671C121.177 58.134 121.193 57.5981 121.21 57.061C114.669 59.7991 108.127 62.5383 101.587 65.2764Z" fill="#4F4034"/>
<path d="M101.512 65.2201C101.511 65.7991 101.509 66.3781 101.508 66.9583C96.7588 65.3316 92.0107 63.7048 87.2613 62.078C87.2315 61.5158 87.2017 60.9536 87.1719 60.3901C91.9522 62.0001 96.7326 63.6101 101.512 65.2201Z" fill="#4F4034"/>
<path d="M99.7899 61.101C99.7887 61.68 99.7875 62.259 99.7863 62.8393C96.3116 61.7891 92.8369 60.739 89.3611 59.6888C89.3432 59.1746 89.3265 58.6603 89.3086 58.146C92.8023 59.1314 96.2961 60.1168 99.7899 61.101Z" fill="#4F4034"/>
<path d="M99.7897 61.1011C99.7885 61.6801 99.7873 62.2591 99.7861 62.8393C105.091 60.8949 110.396 58.9504 115.701 57.0072C115.718 56.4701 115.735 55.9343 115.751 55.3972C110.431 57.2985 105.11 59.1998 99.7897 61.1011Z" fill="#4F4034"/>
<path d="M109.777 8.83988C89.9625 5.89326 70.1482 2.94663 50.3352 0C37.2723 0.875117 24.2083 1.75143 11.1455 2.62655C35.6042 6.06348 60.0616 9.50042 84.5203 12.9374C92.9387 11.5707 101.357 10.2053 109.777 8.83988Z" fill="#754444"/>
<path d="M11.1454 2.62646C7.42989 7.72013 3.71554 12.8138 0 17.9075C26.233 21.9953 52.4659 26.082 78.6989 30.1699C80.6389 24.4253 82.579 18.6819 84.519 12.9373C60.0616 9.50033 35.6029 6.0634 11.1454 2.62646Z" fill="#541515"/>
<path d="M78.6992 30.1699C93.1321 27.4391 107.566 24.7094 121.999 21.9786C117.925 17.5994 113.85 13.219 109.776 8.83984C101.357 10.2053 92.9378 11.5719 84.5194 12.9373C82.5805 18.6807 80.6393 24.4253 78.6992 30.1699Z" fill="#512020"/>
<path d="M0 17.9075C0.108509 18.4853 0.218211 19.0643 0.32672 19.6421C26.2246 23.9734 52.1213 28.3046 78.0192 32.637C78.0991 31.7763 78.1778 30.9167 78.2577 30.056C52.1714 26.0065 26.0863 21.957 0 17.9075Z" fill="#C1C1C1"/>
<path d="M72.1312 66.8662C72.1312 66.8662 70.9745 68.3048 70.9018 68.3887C71.1415 69.446 72.1312 68.8107 72.1312 68.8107L73.4178 67.1216L73.4464 32.7786L71.0461 29.1763H69.335L72.2194 33.4727L72.1312 66.8662Z" fill="#6A6A6B"/>
</svg>
